%TF.GenerationSoftware,KiCad,Pcbnew,8.0.8-2.fc41*%
%TF.CreationDate,2025-02-07T10:50:49+08:00*%
%TF.ProjectId,K9AY_switch,4b394159-5f73-4776-9974-63682e6b6963,rev?*%
%TF.SameCoordinates,Original*%
%TF.FileFunction,Legend,Bot*%
%TF.FilePolarity,Positive*%
%FSLAX46Y46*%
G04 Gerber Fmt 4.6, Leading zero omitted, Abs format (unit mm)*
G04 Created by KiCad (PCBNEW 8.0.8-2.fc41) date 2025-02-07 10:50:49*
%MOMM*%
%LPD*%
G01*
G04 APERTURE LIST*
%ADD10C,0.280000*%
%ADD11C,0.000000*%
G04 APERTURE END LIST*
D10*
X156521123Y-84758106D02*
X155854456Y-84758106D01*
X156654456Y-85158106D02*
X156187790Y-83758106D01*
X156187790Y-83758106D02*
X155721123Y-85158106D01*
X154654456Y-85091440D02*
X154787790Y-85158106D01*
X154787790Y-85158106D02*
X155054456Y-85158106D01*
X155054456Y-85158106D02*
X155187790Y-85091440D01*
X155187790Y-85091440D02*
X155254456Y-85024773D01*
X155254456Y-85024773D02*
X155321123Y-84891440D01*
X155321123Y-84891440D02*
X155321123Y-84491440D01*
X155321123Y-84491440D02*
X155254456Y-84358106D01*
X155254456Y-84358106D02*
X155187790Y-84291440D01*
X155187790Y-84291440D02*
X155054456Y-84224773D01*
X155054456Y-84224773D02*
X154787790Y-84224773D01*
X154787790Y-84224773D02*
X154654456Y-84291440D01*
X154254456Y-84224773D02*
X153721123Y-84224773D01*
X154054456Y-83758106D02*
X154054456Y-84958106D01*
X154054456Y-84958106D02*
X153987790Y-85091440D01*
X153987790Y-85091440D02*
X153854456Y-85158106D01*
X153854456Y-85158106D02*
X153721123Y-85158106D01*
X153254456Y-85158106D02*
X153254456Y-84224773D01*
X153254456Y-83758106D02*
X153321123Y-83824773D01*
X153321123Y-83824773D02*
X153254456Y-83891440D01*
X153254456Y-83891440D02*
X153187790Y-83824773D01*
X153187790Y-83824773D02*
X153254456Y-83758106D01*
X153254456Y-83758106D02*
X153254456Y-83891440D01*
X152721123Y-84224773D02*
X152387789Y-85158106D01*
X152387789Y-85158106D02*
X152054456Y-84224773D01*
X150987789Y-85091440D02*
X151121122Y-85158106D01*
X151121122Y-85158106D02*
X151387789Y-85158106D01*
X151387789Y-85158106D02*
X151521122Y-85091440D01*
X151521122Y-85091440D02*
X151587789Y-84958106D01*
X151587789Y-84958106D02*
X151587789Y-84424773D01*
X151587789Y-84424773D02*
X151521122Y-84291440D01*
X151521122Y-84291440D02*
X151387789Y-84224773D01*
X151387789Y-84224773D02*
X151121122Y-84224773D01*
X151121122Y-84224773D02*
X150987789Y-84291440D01*
X150987789Y-84291440D02*
X150921122Y-84424773D01*
X150921122Y-84424773D02*
X150921122Y-84558106D01*
X150921122Y-84558106D02*
X151587789Y-84691440D01*
X149054455Y-85158106D02*
X149187789Y-85091440D01*
X149187789Y-85091440D02*
X149254455Y-84958106D01*
X149254455Y-84958106D02*
X149254455Y-83758106D01*
X147987789Y-85091440D02*
X148121122Y-85158106D01*
X148121122Y-85158106D02*
X148387789Y-85158106D01*
X148387789Y-85158106D02*
X148521122Y-85091440D01*
X148521122Y-85091440D02*
X148587789Y-84958106D01*
X148587789Y-84958106D02*
X148587789Y-84424773D01*
X148587789Y-84424773D02*
X148521122Y-84291440D01*
X148521122Y-84291440D02*
X148387789Y-84224773D01*
X148387789Y-84224773D02*
X148121122Y-84224773D01*
X148121122Y-84224773D02*
X147987789Y-84291440D01*
X147987789Y-84291440D02*
X147921122Y-84424773D01*
X147921122Y-84424773D02*
X147921122Y-84558106D01*
X147921122Y-84558106D02*
X148587789Y-84691440D01*
X147454456Y-84224773D02*
X147121122Y-85158106D01*
X147121122Y-85158106D02*
X146787789Y-84224773D01*
X145721122Y-85091440D02*
X145854455Y-85158106D01*
X145854455Y-85158106D02*
X146121122Y-85158106D01*
X146121122Y-85158106D02*
X146254455Y-85091440D01*
X146254455Y-85091440D02*
X146321122Y-84958106D01*
X146321122Y-84958106D02*
X146321122Y-84424773D01*
X146321122Y-84424773D02*
X146254455Y-84291440D01*
X146254455Y-84291440D02*
X146121122Y-84224773D01*
X146121122Y-84224773D02*
X145854455Y-84224773D01*
X145854455Y-84224773D02*
X145721122Y-84291440D01*
X145721122Y-84291440D02*
X145654455Y-84424773D01*
X145654455Y-84424773D02*
X145654455Y-84558106D01*
X145654455Y-84558106D02*
X146321122Y-84691440D01*
X144854455Y-85158106D02*
X144987789Y-85091440D01*
X144987789Y-85091440D02*
X145054455Y-84958106D01*
X145054455Y-84958106D02*
X145054455Y-83758106D01*
X143254455Y-84624773D02*
X142187789Y-84624773D01*
X139721122Y-83824773D02*
X139854455Y-83758106D01*
X139854455Y-83758106D02*
X140054455Y-83758106D01*
X140054455Y-83758106D02*
X140254455Y-83824773D01*
X140254455Y-83824773D02*
X140387789Y-83958106D01*
X140387789Y-83958106D02*
X140454455Y-84091440D01*
X140454455Y-84091440D02*
X140521122Y-84358106D01*
X140521122Y-84358106D02*
X140521122Y-84558106D01*
X140521122Y-84558106D02*
X140454455Y-84824773D01*
X140454455Y-84824773D02*
X140387789Y-84958106D01*
X140387789Y-84958106D02*
X140254455Y-85091440D01*
X140254455Y-85091440D02*
X140054455Y-85158106D01*
X140054455Y-85158106D02*
X139921122Y-85158106D01*
X139921122Y-85158106D02*
X139721122Y-85091440D01*
X139721122Y-85091440D02*
X139654455Y-85024773D01*
X139654455Y-85024773D02*
X139654455Y-84558106D01*
X139654455Y-84558106D02*
X139921122Y-84558106D01*
X139054455Y-85158106D02*
X139054455Y-83758106D01*
X139054455Y-83758106D02*
X138254455Y-85158106D01*
X138254455Y-85158106D02*
X138254455Y-83758106D01*
X137587788Y-85158106D02*
X137587788Y-83758106D01*
X137587788Y-83758106D02*
X137254455Y-83758106D01*
X137254455Y-83758106D02*
X137054455Y-83824773D01*
X137054455Y-83824773D02*
X136921122Y-83958106D01*
X136921122Y-83958106D02*
X136854455Y-84091440D01*
X136854455Y-84091440D02*
X136787788Y-84358106D01*
X136787788Y-84358106D02*
X136787788Y-84558106D01*
X136787788Y-84558106D02*
X136854455Y-84824773D01*
X136854455Y-84824773D02*
X136921122Y-84958106D01*
X136921122Y-84958106D02*
X137054455Y-85091440D01*
X137054455Y-85091440D02*
X137254455Y-85158106D01*
X137254455Y-85158106D02*
X137587788Y-85158106D01*
D11*
%TO.C,G\u002A\u002A\u002A*%
G36*
X178660323Y-91816903D02*
G01*
X178660323Y-95162602D01*
X178660323Y-98508301D01*
X178660323Y-101762961D01*
X178660321Y-101785721D01*
X178660300Y-102105023D01*
X178659218Y-104094585D01*
X178657797Y-105131419D01*
X178656600Y-106004481D01*
X178652553Y-107817124D01*
X178650465Y-108477118D01*
X178647181Y-109514927D01*
X178640592Y-111080304D01*
X178636552Y-111822817D01*
X178632891Y-112495668D01*
X178624185Y-113743433D01*
X178614579Y-114806013D01*
X178610195Y-115168516D01*
X178604180Y-115665820D01*
X178593094Y-116305269D01*
X178581426Y-116706773D01*
X178569284Y-116852746D01*
X178520324Y-116857594D01*
X178226840Y-116865932D01*
X177679294Y-116874038D01*
X176889817Y-116881876D01*
X175870544Y-116889412D01*
X174633607Y-116896609D01*
X173191139Y-116903433D01*
X171555273Y-116909849D01*
X169738142Y-116915821D01*
X167751879Y-116921314D01*
X165608616Y-116926293D01*
X163320487Y-116930722D01*
X160899625Y-116934567D01*
X158358162Y-116937791D01*
X155708231Y-116940361D01*
X152961965Y-116942240D01*
X150131498Y-116943393D01*
X147228961Y-116943785D01*
X115979678Y-116943785D01*
X115979678Y-113666366D01*
X116252796Y-113666366D01*
X116252796Y-115168516D01*
X116252796Y-116670667D01*
X122329678Y-116670667D01*
X128406560Y-116670667D01*
X128679678Y-116670667D01*
X134824839Y-116670667D01*
X140970001Y-116670667D01*
X141243119Y-116670667D01*
X147320001Y-116670667D01*
X153396882Y-116670667D01*
X153670001Y-116670667D01*
X159746882Y-116670667D01*
X165823764Y-116670667D01*
X166096882Y-116670667D01*
X172242044Y-116670667D01*
X178387205Y-116670667D01*
X178387205Y-115168516D01*
X178387205Y-113666366D01*
X172242044Y-113666366D01*
X166096882Y-113666366D01*
X166096882Y-115168516D01*
X166096882Y-116670667D01*
X165823764Y-116670667D01*
X165823764Y-115168516D01*
X165823764Y-113666366D01*
X159746882Y-113666366D01*
X153670001Y-113666366D01*
X153670001Y-115168516D01*
X153670001Y-116670667D01*
X153396882Y-116670667D01*
X153396882Y-115168516D01*
X153396882Y-113666366D01*
X147320001Y-113666366D01*
X141243119Y-113666366D01*
X141243119Y-115168516D01*
X141243119Y-116670667D01*
X140970001Y-116670667D01*
X140970001Y-115168516D01*
X140970001Y-113666366D01*
X134824839Y-113666366D01*
X128679678Y-113666366D01*
X128679678Y-115168516D01*
X128679678Y-116670667D01*
X128406560Y-116670667D01*
X128406560Y-115168516D01*
X128406560Y-113666366D01*
X122329678Y-113666366D01*
X116252796Y-113666366D01*
X115979678Y-113666366D01*
X115979678Y-110252387D01*
X116252796Y-110252387D01*
X116252796Y-111822817D01*
X116252796Y-113393247D01*
X122329678Y-113393247D01*
X128406560Y-113393247D01*
X128679678Y-113393247D01*
X134824839Y-113393247D01*
X140970001Y-113393247D01*
X141243119Y-113393247D01*
X147320001Y-113393247D01*
X153396882Y-113393247D01*
X153670001Y-113393247D01*
X159746882Y-113393247D01*
X165823764Y-113393247D01*
X166096882Y-113393247D01*
X172242044Y-113393247D01*
X178387205Y-113393247D01*
X178387205Y-111822817D01*
X178387205Y-110252387D01*
X172242044Y-110252387D01*
X166096882Y-110252387D01*
X166096882Y-111822817D01*
X166096882Y-113393247D01*
X165823764Y-113393247D01*
X165823764Y-111822817D01*
X165823764Y-110252387D01*
X159746882Y-110252387D01*
X153670001Y-110252387D01*
X153670001Y-111822817D01*
X153670001Y-113393247D01*
X153396882Y-113393247D01*
X153396882Y-111822817D01*
X153396882Y-110252387D01*
X147320001Y-110252387D01*
X141243119Y-110252387D01*
X141243119Y-111822817D01*
X141243119Y-113393247D01*
X140970001Y-113393247D01*
X140970001Y-111822817D01*
X140970001Y-110252387D01*
X134824839Y-110252387D01*
X128679678Y-110252387D01*
X128679678Y-111822817D01*
X128679678Y-113393247D01*
X128406560Y-113393247D01*
X128406560Y-111822817D01*
X128406560Y-110252387D01*
X122329678Y-110252387D01*
X116252796Y-110252387D01*
X115979678Y-110252387D01*
X115979678Y-106974968D01*
X116252796Y-106974968D01*
X116252796Y-108477118D01*
X116252796Y-109979269D01*
X122329678Y-109979269D01*
X128406560Y-109979269D01*
X128679678Y-109979269D01*
X134824839Y-109979269D01*
X140970001Y-109979269D01*
X141243119Y-109979269D01*
X147320001Y-109979269D01*
X153396882Y-109979269D01*
X153670001Y-109979269D01*
X159746882Y-109979269D01*
X165823764Y-109979269D01*
X166096882Y-109979269D01*
X172242044Y-109979269D01*
X178387205Y-109979269D01*
X178387205Y-108477118D01*
X178387205Y-106974968D01*
X172242044Y-106974968D01*
X166096882Y-106974968D01*
X166096882Y-108477118D01*
X166096882Y-109979269D01*
X165823764Y-109979269D01*
X165823764Y-108477118D01*
X165823764Y-106974968D01*
X159746882Y-106974968D01*
X153670001Y-106974968D01*
X153670001Y-108477118D01*
X153670001Y-109979269D01*
X153396882Y-109979269D01*
X153396882Y-108477118D01*
X153396882Y-106974968D01*
X147320001Y-106974968D01*
X141243119Y-106974968D01*
X141243119Y-108477118D01*
X141243119Y-109979269D01*
X140970001Y-109979269D01*
X140970001Y-108477118D01*
X140970001Y-106974968D01*
X134824839Y-106974968D01*
X128679678Y-106974968D01*
X128679678Y-108477118D01*
X128679678Y-109979269D01*
X128406560Y-109979269D01*
X128406560Y-108477118D01*
X128406560Y-106974968D01*
X122329678Y-106974968D01*
X116252796Y-106974968D01*
X115979678Y-106974968D01*
X115979678Y-103560989D01*
X116252796Y-103560989D01*
X116252796Y-105131419D01*
X116252796Y-106701850D01*
X122329678Y-106701850D01*
X128406560Y-106701850D01*
X128679678Y-106701850D01*
X134824839Y-106701850D01*
X140970001Y-106701850D01*
X141243119Y-106701850D01*
X147320001Y-106701850D01*
X153396882Y-106701850D01*
X153670001Y-106701850D01*
X159746882Y-106701850D01*
X165823764Y-106701850D01*
X166096882Y-106701850D01*
X172242044Y-106701850D01*
X178387205Y-106701850D01*
X178387205Y-105131419D01*
X178387205Y-103560989D01*
X172242044Y-103560989D01*
X166096882Y-103560989D01*
X166096882Y-105131419D01*
X166096882Y-106701850D01*
X165823764Y-106701850D01*
X165823764Y-105131419D01*
X165823764Y-103560989D01*
X159746882Y-103560989D01*
X153670001Y-103560989D01*
X153670001Y-105131419D01*
X153670001Y-106701850D01*
X153396882Y-106701850D01*
X153396882Y-105131419D01*
X153396882Y-103560989D01*
X147320001Y-103560989D01*
X141243119Y-103560989D01*
X141243119Y-105131419D01*
X141243119Y-106701850D01*
X140970001Y-106701850D01*
X140970001Y-105131419D01*
X140970001Y-103560989D01*
X134824839Y-103560989D01*
X128679678Y-103560989D01*
X128679678Y-105131419D01*
X128679678Y-106701850D01*
X128406560Y-106701850D01*
X128406560Y-105131419D01*
X128406560Y-103560989D01*
X122329678Y-103560989D01*
X116252796Y-103560989D01*
X115979678Y-103560989D01*
X115979678Y-101854000D01*
X115979678Y-100283570D01*
X116252796Y-100283570D01*
X116252796Y-101785721D01*
X116252796Y-103287871D01*
X122329678Y-103287871D01*
X128406560Y-103287871D01*
X128679678Y-103287871D01*
X134824839Y-103287871D01*
X140970001Y-103287871D01*
X141243119Y-103287871D01*
X147320001Y-103287871D01*
X153396882Y-103287871D01*
X153670001Y-103287871D01*
X159746882Y-103287871D01*
X165823764Y-103287871D01*
X166096882Y-103287871D01*
X172242044Y-103287871D01*
X178387205Y-103287871D01*
X178387205Y-101785721D01*
X178387205Y-100283570D01*
X172242044Y-100283570D01*
X166096882Y-100283570D01*
X166096882Y-101785721D01*
X166096882Y-103287871D01*
X165823764Y-103287871D01*
X165823764Y-101785721D01*
X165823764Y-100283570D01*
X159746882Y-100283570D01*
X153670001Y-100283570D01*
X153670001Y-101785721D01*
X153670001Y-103287871D01*
X153396882Y-103287871D01*
X153396882Y-101785721D01*
X153396882Y-100283570D01*
X147320001Y-100283570D01*
X141243119Y-100283570D01*
X141243119Y-101785721D01*
X141243119Y-103287871D01*
X140970001Y-103287871D01*
X140970001Y-101785721D01*
X140970001Y-100283570D01*
X134824839Y-100283570D01*
X128679678Y-100283570D01*
X128679678Y-101785721D01*
X128679678Y-103287871D01*
X128406560Y-103287871D01*
X128406560Y-101785721D01*
X128406560Y-100283570D01*
X122329678Y-100283570D01*
X116252796Y-100283570D01*
X115979678Y-100283570D01*
X115979678Y-97006151D01*
X116252796Y-97006151D01*
X116252796Y-98508301D01*
X116252796Y-100010452D01*
X122329678Y-100010452D01*
X128406560Y-100010452D01*
X128679678Y-100010452D01*
X134824839Y-100010452D01*
X140970001Y-100010452D01*
X141243119Y-100010452D01*
X147320001Y-100010452D01*
X153396882Y-100010452D01*
X153670001Y-100010452D01*
X159746882Y-100010452D01*
X165823764Y-100010452D01*
X166096882Y-100010452D01*
X172242044Y-100010452D01*
X178387205Y-100010452D01*
X178387205Y-98508301D01*
X178387205Y-97006151D01*
X172242044Y-97006151D01*
X166096882Y-97006151D01*
X166096882Y-98508301D01*
X166096882Y-100010452D01*
X165823764Y-100010452D01*
X165823764Y-98508301D01*
X165823764Y-97006151D01*
X159746882Y-97006151D01*
X153670001Y-97006151D01*
X153670001Y-98508301D01*
X153670001Y-100010452D01*
X153396882Y-100010452D01*
X153396882Y-98508301D01*
X153396882Y-97006151D01*
X147320001Y-97006151D01*
X141243119Y-97006151D01*
X141243119Y-98508301D01*
X141243119Y-100010452D01*
X140970001Y-100010452D01*
X140970001Y-98508301D01*
X140970001Y-97006151D01*
X134824839Y-97006151D01*
X128679678Y-97006151D01*
X128679678Y-98508301D01*
X128679678Y-100010452D01*
X128406560Y-100010452D01*
X128406560Y-98508301D01*
X128406560Y-97006151D01*
X122329678Y-97006151D01*
X116252796Y-97006151D01*
X115979678Y-97006151D01*
X115979678Y-93592172D01*
X116252796Y-93592172D01*
X116252796Y-95162602D01*
X116252796Y-96733032D01*
X122329678Y-96733032D01*
X128406560Y-96733032D01*
X128679678Y-96733032D01*
X134824839Y-96733032D01*
X140970001Y-96733032D01*
X141243119Y-96733032D01*
X147320001Y-96733032D01*
X153396882Y-96733032D01*
X153670001Y-96733032D01*
X159746882Y-96733032D01*
X165823764Y-96733032D01*
X166096882Y-96733032D01*
X172242044Y-96733032D01*
X178387205Y-96733032D01*
X178387205Y-95162602D01*
X178387205Y-93592172D01*
X172242044Y-93592172D01*
X166096882Y-93592172D01*
X166096882Y-95162602D01*
X166096882Y-96733032D01*
X165823764Y-96733032D01*
X165823764Y-95162602D01*
X165823764Y-93592172D01*
X159746882Y-93592172D01*
X153670001Y-93592172D01*
X153670001Y-95162602D01*
X153670001Y-96733032D01*
X153396882Y-96733032D01*
X153396882Y-95162602D01*
X153396882Y-93592172D01*
X147320001Y-93592172D01*
X141243119Y-93592172D01*
X141243119Y-95162602D01*
X141243119Y-96733032D01*
X140970001Y-96733032D01*
X140970001Y-95162602D01*
X140970001Y-93592172D01*
X134824839Y-93592172D01*
X128679678Y-93592172D01*
X128679678Y-95162602D01*
X128679678Y-96733032D01*
X128406560Y-96733032D01*
X128406560Y-95162602D01*
X128406560Y-93592172D01*
X122329678Y-93592172D01*
X116252796Y-93592172D01*
X115979678Y-93592172D01*
X115979678Y-90314753D01*
X116252796Y-90314753D01*
X116252796Y-91816903D01*
X116252796Y-93319054D01*
X122329678Y-93319054D01*
X128406560Y-93319054D01*
X128679678Y-93319054D01*
X134824839Y-93319054D01*
X140970001Y-93319054D01*
X141243119Y-93319054D01*
X147320001Y-93319054D01*
X153396882Y-93319054D01*
X153670001Y-93319054D01*
X159746882Y-93319054D01*
X165823764Y-93319054D01*
X166096882Y-93319054D01*
X172242044Y-93319054D01*
X178387205Y-93319054D01*
X178387205Y-91816903D01*
X178387205Y-90314753D01*
X172242044Y-90314753D01*
X166096882Y-90314753D01*
X166096882Y-91816903D01*
X166096882Y-93319054D01*
X165823764Y-93319054D01*
X165823764Y-91816903D01*
X165823764Y-90314753D01*
X159746882Y-90314753D01*
X153670001Y-90314753D01*
X153670001Y-91816903D01*
X153670001Y-93319054D01*
X153396882Y-93319054D01*
X153396882Y-91816903D01*
X153396882Y-90314753D01*
X147320001Y-90314753D01*
X141243119Y-90314753D01*
X141243119Y-91816903D01*
X141243119Y-93319054D01*
X140970001Y-93319054D01*
X140970001Y-91816903D01*
X140970001Y-90314753D01*
X134824839Y-90314753D01*
X128679678Y-90314753D01*
X128679678Y-91816903D01*
X128679678Y-93319054D01*
X128406560Y-93319054D01*
X128406560Y-91816903D01*
X128406560Y-90314753D01*
X122329678Y-90314753D01*
X116252796Y-90314753D01*
X115979678Y-90314753D01*
X115979678Y-87037333D01*
X116252796Y-87037333D01*
X116252796Y-88539484D01*
X116252796Y-90041634D01*
X122329678Y-90041634D01*
X128406560Y-90041634D01*
X128679678Y-90041634D01*
X134824839Y-90041634D01*
X140970001Y-90041634D01*
X141243119Y-90041634D01*
X147320001Y-90041634D01*
X153396882Y-90041634D01*
X153670001Y-90041634D01*
X159746882Y-90041634D01*
X165823764Y-90041634D01*
X166096882Y-90041634D01*
X172242044Y-90041634D01*
X178387205Y-90041634D01*
X178387205Y-88539484D01*
X178387205Y-87037333D01*
X172242044Y-87037333D01*
X166096882Y-87037333D01*
X166096882Y-88539484D01*
X166096882Y-90041634D01*
X165823764Y-90041634D01*
X165823764Y-88539484D01*
X165823764Y-87037333D01*
X159746882Y-87037333D01*
X153670001Y-87037333D01*
X153670001Y-88539484D01*
X153670001Y-90041634D01*
X153396882Y-90041634D01*
X153396882Y-88539484D01*
X153396882Y-87037333D01*
X147320001Y-87037333D01*
X141243119Y-87037333D01*
X141243119Y-88539484D01*
X141243119Y-90041634D01*
X140970001Y-90041634D01*
X140970001Y-88539484D01*
X140970001Y-87037333D01*
X134824839Y-87037333D01*
X128679678Y-87037333D01*
X128679678Y-88539484D01*
X128679678Y-90041634D01*
X128406560Y-90041634D01*
X128406560Y-88539484D01*
X128406560Y-87037333D01*
X122329678Y-87037333D01*
X116252796Y-87037333D01*
X115979678Y-87037333D01*
X115979678Y-86764215D01*
X147320001Y-86764215D01*
X178660323Y-86764215D01*
X178660323Y-88539484D01*
X178660323Y-91816903D01*
G37*
G36*
X176443476Y-114266033D02*
G01*
X176500896Y-114758839D01*
X176543657Y-115373355D01*
X176953334Y-114724943D01*
X176970836Y-114697341D01*
X177268440Y-114274606D01*
X177478031Y-114097248D01*
X177612176Y-114171546D01*
X177683446Y-114503782D01*
X177704409Y-115100237D01*
X177699673Y-115377629D01*
X177661162Y-115836859D01*
X177596767Y-116075218D01*
X177522056Y-116080253D01*
X177452599Y-115839512D01*
X177403966Y-115340542D01*
X177363011Y-114556653D01*
X176904959Y-115272262D01*
X176678333Y-115604350D01*
X176456698Y-115881436D01*
X176324582Y-115987871D01*
X176310713Y-115981105D01*
X176255568Y-115803286D01*
X176216863Y-115433089D01*
X176202259Y-114936366D01*
X176203133Y-114816739D01*
X176232966Y-114319708D01*
X176293585Y-114055935D01*
X176369064Y-114034888D01*
X176443476Y-114266033D01*
G37*
G36*
X175792581Y-114144072D02*
G01*
X175788172Y-114210964D01*
X175738093Y-114533040D01*
X175649451Y-114977435D01*
X175543957Y-115440146D01*
X175443321Y-115817172D01*
X175407650Y-115905782D01*
X175278936Y-115987577D01*
X175140345Y-115845020D01*
X175032213Y-115508406D01*
X174944769Y-115158194D01*
X174834011Y-114983193D01*
X174726362Y-115076913D01*
X174631927Y-115441054D01*
X174565871Y-115734166D01*
X174446543Y-115949061D01*
X174308592Y-115899841D01*
X174158720Y-115590926D01*
X174003627Y-115026734D01*
X173941026Y-114714936D01*
X173888169Y-114303310D01*
X173891639Y-114048806D01*
X173942920Y-113980195D01*
X174033497Y-114126249D01*
X174154855Y-114515740D01*
X174194276Y-114668701D01*
X174287483Y-115027380D01*
X174342140Y-115233295D01*
X174367138Y-115236839D01*
X174442839Y-115063602D01*
X174541589Y-114721199D01*
X174684876Y-114279551D01*
X174821808Y-114103053D01*
X174945896Y-114194351D01*
X175050799Y-114555508D01*
X175138143Y-114905411D01*
X175248912Y-115080707D01*
X175356564Y-114987337D01*
X175450965Y-114623576D01*
X175465761Y-114544040D01*
X175559655Y-114215241D01*
X175667241Y-114008356D01*
X175755792Y-113969321D01*
X175792581Y-114144072D01*
G37*
G36*
X160446579Y-115518441D02*
G01*
X160352005Y-115711385D01*
X160271954Y-115874699D01*
X160150405Y-115987747D01*
X159820966Y-116117002D01*
X159507424Y-116034724D01*
X159244991Y-115784169D01*
X159068883Y-115408591D01*
X159028898Y-115073474D01*
X159269963Y-115073474D01*
X159402105Y-115501024D01*
X159544462Y-115737090D01*
X159735443Y-115851312D01*
X159850398Y-115840482D01*
X160014268Y-115711385D01*
X159962100Y-115461524D01*
X159695621Y-115122507D01*
X159439788Y-114903145D01*
X159283174Y-114873343D01*
X159269963Y-115073474D01*
X159028898Y-115073474D01*
X159014314Y-114951248D01*
X159116498Y-114455395D01*
X159182075Y-114326461D01*
X159519519Y-114326461D01*
X159556762Y-114526159D01*
X159825520Y-114834847D01*
X160247356Y-115236796D01*
X160201958Y-114840892D01*
X160158490Y-114649121D01*
X159988864Y-114361444D01*
X159761959Y-114223593D01*
X159544902Y-114291679D01*
X159519519Y-114326461D01*
X159182075Y-114326461D01*
X159194881Y-114301282D01*
X159495245Y-114036750D01*
X159869504Y-113978092D01*
X160230342Y-114149302D01*
X160278591Y-114200180D01*
X160447120Y-114566047D01*
X160504042Y-115043846D01*
X160480680Y-115236796D01*
X160446579Y-115518441D01*
G37*
G36*
X147341016Y-114188362D02*
G01*
X147561521Y-114347466D01*
X147661399Y-114505135D01*
X147632059Y-114569124D01*
X147456560Y-114572896D01*
X147426313Y-114563035D01*
X147318503Y-114594467D01*
X147265713Y-114795859D01*
X147251721Y-115218322D01*
X147244222Y-115497114D01*
X147207082Y-115860276D01*
X147149302Y-116045601D01*
X147140886Y-116050739D01*
X147086648Y-115940647D01*
X147038648Y-115625540D01*
X147006428Y-115164281D01*
X147004375Y-115112093D01*
X146994611Y-114630702D01*
X147003304Y-114274330D01*
X147028872Y-114116813D01*
X147118572Y-114100689D01*
X147341016Y-114188362D01*
G37*
G36*
X135525999Y-115314360D02*
G01*
X135416746Y-115706755D01*
X135406609Y-115743163D01*
X135202872Y-116010318D01*
X135014630Y-116098419D01*
X134653858Y-116097098D01*
X134350721Y-115894534D01*
X134140496Y-115538841D01*
X134058460Y-115078133D01*
X134058997Y-115074720D01*
X134280185Y-115074720D01*
X134411782Y-115501024D01*
X134549419Y-115725499D01*
X134821459Y-115851312D01*
X134949037Y-115837555D01*
X135083466Y-115706755D01*
X134995347Y-115454211D01*
X134688280Y-115100237D01*
X134454943Y-114907378D01*
X134294965Y-114876268D01*
X134280185Y-115074720D01*
X134058997Y-115074720D01*
X134139890Y-114560525D01*
X134281563Y-114285155D01*
X134537766Y-114285155D01*
X134539227Y-114472217D01*
X134780197Y-114783511D01*
X135074926Y-115052712D01*
X135288882Y-115175100D01*
X135371076Y-115120614D01*
X135339835Y-114926082D01*
X135203178Y-114599714D01*
X135013951Y-114326882D01*
X134834240Y-114212602D01*
X134776618Y-114213841D01*
X134537766Y-114285155D01*
X134281563Y-114285155D01*
X134309736Y-114230395D01*
X134619101Y-113988640D01*
X134964486Y-113963866D01*
X135278337Y-114155876D01*
X135493101Y-114564474D01*
X135540166Y-114827902D01*
X135531641Y-115120614D01*
X135525999Y-115314360D01*
G37*
G36*
X122400805Y-114146899D02*
G01*
X122476017Y-114219452D01*
X122642900Y-114447526D01*
X122642449Y-114583622D01*
X122466237Y-114572896D01*
X122435991Y-114563035D01*
X122328181Y-114594467D01*
X122275391Y-114795859D01*
X122261399Y-115218322D01*
X122253900Y-115497109D01*
X122216760Y-115860305D01*
X122158979Y-116045676D01*
X122133946Y-116044930D01*
X122082723Y-115879942D01*
X122041068Y-115551117D01*
X122013109Y-115133840D01*
X122002975Y-114703495D01*
X122014795Y-114335468D01*
X122052698Y-114105143D01*
X122088080Y-114029484D01*
X122194196Y-113990780D01*
X122400805Y-114146899D01*
G37*
G36*
X175811375Y-110676450D02*
G01*
X175912273Y-110867006D01*
X175997420Y-111208301D01*
X176089800Y-111588876D01*
X176199082Y-111731555D01*
X176308835Y-111602307D01*
X176408278Y-111201316D01*
X176431944Y-111077794D01*
X176542557Y-110772868D01*
X176675221Y-110732080D01*
X176817453Y-110950389D01*
X176956771Y-111422756D01*
X177107349Y-112095936D01*
X177207748Y-111546906D01*
X177250263Y-111342534D01*
X177372732Y-110938426D01*
X177504348Y-110695589D01*
X177619644Y-110668339D01*
X177624197Y-110676590D01*
X177620518Y-110866424D01*
X177565290Y-111240182D01*
X177468649Y-111726810D01*
X177452604Y-111798212D01*
X177326864Y-112261450D01*
X177204008Y-112571470D01*
X177106265Y-112670389D01*
X177057951Y-112630529D01*
X176930402Y-112390295D01*
X176810624Y-112017640D01*
X176766299Y-111846684D01*
X176686679Y-111622239D01*
X176615153Y-111618152D01*
X176531923Y-111850388D01*
X176417188Y-112334914D01*
X176400517Y-112405148D01*
X176295744Y-112659878D01*
X176175534Y-112650518D01*
X176037052Y-112374409D01*
X175877463Y-111828892D01*
X175807785Y-111547976D01*
X175703280Y-111087040D01*
X175666617Y-110818343D01*
X175693736Y-110692984D01*
X175780578Y-110662065D01*
X175811375Y-110676450D01*
G37*
G36*
X160481711Y-112125742D02*
G01*
X160417852Y-112343816D01*
X160392349Y-112430909D01*
X160194888Y-112634125D01*
X159898789Y-112756029D01*
X159519422Y-112730250D01*
X159236795Y-112521347D01*
X159068043Y-112135776D01*
X159029200Y-111666610D01*
X159281111Y-111666610D01*
X159332555Y-112006483D01*
X159443330Y-112309212D01*
X159668134Y-112497119D01*
X159961706Y-112431162D01*
X160041855Y-112343816D01*
X159993024Y-112178515D01*
X159754439Y-111898985D01*
X159530454Y-111678927D01*
X159340659Y-111559060D01*
X159281111Y-111666610D01*
X159029200Y-111666610D01*
X159027576Y-111646990D01*
X159139871Y-111192656D01*
X159228503Y-111067458D01*
X159507995Y-111067458D01*
X159576987Y-111269623D01*
X159824735Y-111557427D01*
X160245786Y-111959376D01*
X160201173Y-111482538D01*
X160175366Y-111332060D01*
X160017680Y-111032281D01*
X159780639Y-110918560D01*
X159526638Y-111032524D01*
X159507995Y-111067458D01*
X159228503Y-111067458D01*
X159384531Y-110847061D01*
X159741157Y-110684489D01*
X159941070Y-110681407D01*
X160258110Y-110823790D01*
X160439910Y-111182113D01*
X160497958Y-111772895D01*
X160489371Y-111959376D01*
X160481711Y-112125742D01*
G37*
G36*
X148061632Y-111817809D02*
G01*
X147924837Y-112321839D01*
X147915490Y-112356280D01*
X147757115Y-112594720D01*
X147539952Y-112747179D01*
X147281700Y-112769441D01*
X146903257Y-112624277D01*
X146656894Y-112264999D01*
X146568925Y-111719460D01*
X146571966Y-111568555D01*
X146597714Y-111418392D01*
X146842044Y-111418392D01*
X146842044Y-111854779D01*
X146852495Y-111995611D01*
X146989236Y-112328239D01*
X147236280Y-112490764D01*
X147532197Y-112431824D01*
X147619751Y-112321839D01*
X147546599Y-112150682D01*
X147285861Y-111863602D01*
X146842044Y-111418392D01*
X146597714Y-111418392D01*
X146660661Y-111051285D01*
X146684414Y-111019574D01*
X146978603Y-111019574D01*
X146996344Y-111064300D01*
X147142563Y-111273728D01*
X147388280Y-111570563D01*
X147478124Y-111671893D01*
X147684609Y-111880627D01*
X147776821Y-111900448D01*
X147797958Y-111750312D01*
X147732982Y-111373981D01*
X147532228Y-111057842D01*
X147246916Y-110935183D01*
X147093171Y-110950515D01*
X146978603Y-111019574D01*
X146684414Y-111019574D01*
X146881873Y-110755954D01*
X147248782Y-110662065D01*
X147485368Y-110698835D01*
X147823289Y-110929922D01*
X148023138Y-111322635D01*
X148056385Y-111750312D01*
X148061632Y-111817809D01*
G37*
G36*
X134778956Y-110808699D02*
G01*
X134997618Y-110959600D01*
X135097958Y-111119201D01*
X135069293Y-111168380D01*
X134893119Y-111158918D01*
X134835403Y-111144593D01*
X134744367Y-111205986D01*
X134699977Y-111439528D01*
X134688280Y-111895383D01*
X134673893Y-112261691D01*
X134624549Y-112586135D01*
X134551721Y-112710452D01*
X134531201Y-112698108D01*
X134474342Y-112508815D01*
X134434980Y-112155298D01*
X134415398Y-111720666D01*
X134417879Y-111288024D01*
X134444706Y-110940480D01*
X134498164Y-110761141D01*
X134565512Y-110740249D01*
X134778956Y-110808699D01*
G37*
G36*
X123033280Y-112124297D02*
G01*
X122938363Y-112321839D01*
X122844520Y-112517147D01*
X122534517Y-112742906D01*
X122503427Y-112751735D01*
X122102122Y-112724936D01*
X121749302Y-112460430D01*
X121744562Y-112454398D01*
X121623832Y-112133746D01*
X121588657Y-111683931D01*
X121617275Y-111418392D01*
X121851721Y-111418392D01*
X121851721Y-111854779D01*
X121862172Y-111995611D01*
X121998913Y-112328239D01*
X122245958Y-112490764D01*
X122541875Y-112431824D01*
X122629428Y-112321839D01*
X122556276Y-112150682D01*
X122295538Y-111863602D01*
X121851721Y-111418392D01*
X121617275Y-111418392D01*
X121637469Y-111231011D01*
X121710972Y-111046193D01*
X121988280Y-111046193D01*
X121999131Y-111081941D01*
X122142088Y-111280086D01*
X122397958Y-111549699D01*
X122503742Y-111650236D01*
X122708109Y-111822973D01*
X122791638Y-111819906D01*
X122807635Y-111654696D01*
X122781879Y-111350834D01*
X122624497Y-111036579D01*
X122315068Y-110935183D01*
X122104838Y-110961372D01*
X121988280Y-111046193D01*
X121710972Y-111046193D01*
X121768699Y-110901043D01*
X121847559Y-110817117D01*
X122185873Y-110673201D01*
X122562642Y-110724830D01*
X122868171Y-110965568D01*
X122983314Y-111176976D01*
X123084859Y-111649270D01*
X123084270Y-111654696D01*
X123033280Y-112124297D01*
G37*
G36*
X177438935Y-107499934D02*
G01*
X177588207Y-107650464D01*
X177666456Y-107930997D01*
X177476541Y-108196775D01*
X177021696Y-108440506D01*
X176881344Y-108502139D01*
X176567005Y-108718697D01*
X176455133Y-108932165D01*
X176555280Y-109095064D01*
X176876995Y-109159914D01*
X177178694Y-109121145D01*
X177364388Y-109021127D01*
X177402474Y-108978155D01*
X177583917Y-108965005D01*
X177637693Y-109035660D01*
X177557760Y-109240351D01*
X177398331Y-109348095D01*
X177037609Y-109424484D01*
X176648393Y-109399265D01*
X176366130Y-109269161D01*
X176268680Y-109108769D01*
X176202259Y-108786351D01*
X176238307Y-108602961D01*
X176423014Y-108405548D01*
X176816775Y-108204000D01*
X177024635Y-108107070D01*
X177316650Y-107934185D01*
X177431291Y-107808378D01*
X177409141Y-107733113D01*
X177215606Y-107609496D01*
X176911456Y-107579091D01*
X176605399Y-107661262D01*
X176494173Y-107712837D01*
X176268932Y-107743464D01*
X176221966Y-107636778D01*
X176399273Y-107441760D01*
X176618482Y-107314396D01*
X177019603Y-107274966D01*
X177438935Y-107499934D01*
G37*
G36*
X175789243Y-107479005D02*
G01*
X175784476Y-107553129D01*
X175733159Y-107901273D01*
X175644714Y-108357020D01*
X175542987Y-108803983D01*
X175451828Y-109125774D01*
X175418578Y-109201925D01*
X175283362Y-109295918D01*
X175141997Y-109158358D01*
X175032213Y-108817008D01*
X174944769Y-108466796D01*
X174834011Y-108291795D01*
X174726362Y-108385515D01*
X174631927Y-108749656D01*
X174558320Y-109065633D01*
X174435051Y-109269318D01*
X174294070Y-109211687D01*
X174144124Y-108898425D01*
X173993963Y-108335214D01*
X173938348Y-108046968D01*
X173885918Y-107624822D01*
X173890114Y-107363668D01*
X173942176Y-107291325D01*
X174033343Y-107435610D01*
X174154855Y-107824342D01*
X174194276Y-107977303D01*
X174287483Y-108335982D01*
X174342140Y-108541897D01*
X174367138Y-108545441D01*
X174442839Y-108372204D01*
X174541589Y-108029801D01*
X174684876Y-107588153D01*
X174821808Y-107411656D01*
X174945896Y-107502954D01*
X175050799Y-107864111D01*
X175138143Y-108214013D01*
X175248912Y-108389309D01*
X175356564Y-108295939D01*
X175450965Y-107932178D01*
X175468234Y-107840341D01*
X175563306Y-107512599D01*
X175670072Y-107314227D01*
X175756171Y-107288579D01*
X175789243Y-107479005D01*
G37*
G36*
X159924409Y-107548516D02*
G01*
X160061799Y-107736583D01*
X160059210Y-107883618D01*
X159883442Y-107881498D01*
X159825725Y-107867174D01*
X159734689Y-107928567D01*
X159690299Y-108162109D01*
X159678603Y-108617963D01*
X159664215Y-108984271D01*
X159614872Y-109308716D01*
X159542044Y-109433032D01*
X159535640Y-109432074D01*
X159468297Y-109284603D01*
X159422429Y-108924904D01*
X159405485Y-108408839D01*
X159407311Y-108207203D01*
X159443906Y-107688094D01*
X159535381Y-107416725D01*
X159692096Y-107375924D01*
X159924409Y-107548516D01*
G37*
G36*
X148034310Y-108704476D02*
G01*
X147909408Y-109006439D01*
X147858494Y-109129529D01*
X147823067Y-109177207D01*
X147508953Y-109416896D01*
X147174965Y-109428150D01*
X146872621Y-109240608D01*
X146653435Y-108883904D01*
X146577905Y-108440401D01*
X146842044Y-108440401D01*
X146854580Y-108624619D01*
X146924934Y-108943907D01*
X146928096Y-108951716D01*
X147112578Y-109117386D01*
X147378906Y-109155728D01*
X147580204Y-109044252D01*
X147585671Y-109006439D01*
X147483211Y-108807467D01*
X147246865Y-108540746D01*
X147144917Y-108443810D01*
X146940829Y-108270879D01*
X146857784Y-108274182D01*
X146842044Y-108440401D01*
X146577905Y-108440401D01*
X146568925Y-108387674D01*
X146586825Y-108149054D01*
X146717420Y-107731372D01*
X147028877Y-107731372D01*
X147132428Y-107961125D01*
X147371262Y-108250009D01*
X147797958Y-108676705D01*
X147797958Y-108313548D01*
X147786526Y-108173253D01*
X147665156Y-107844225D01*
X147459546Y-107616973D01*
X147230275Y-107542612D01*
X147037924Y-107672259D01*
X147028877Y-107731372D01*
X146717420Y-107731372D01*
X146729162Y-107693818D01*
X146976921Y-107370796D01*
X147285861Y-107250177D01*
X147369688Y-107257839D01*
X147695636Y-107432491D01*
X147930185Y-107781472D01*
X148050642Y-108230295D01*
X148047775Y-108313548D01*
X148034310Y-108704476D01*
G37*
G36*
X135502063Y-108708016D02*
G01*
X135408822Y-109015357D01*
X135356971Y-109186269D01*
X135245910Y-109305742D01*
X134931350Y-109420549D01*
X134576479Y-109409310D01*
X134314154Y-109262333D01*
X134309476Y-109256340D01*
X134120375Y-108854657D01*
X134066195Y-108383322D01*
X134280185Y-108383322D01*
X134411782Y-108809626D01*
X134549419Y-109034101D01*
X134821459Y-109159914D01*
X134949037Y-109146157D01*
X135083466Y-109015357D01*
X134995347Y-108762814D01*
X134688280Y-108408839D01*
X134454943Y-108215980D01*
X134294965Y-108184870D01*
X134280185Y-108383322D01*
X134066195Y-108383322D01*
X134065620Y-108378324D01*
X134133332Y-107910741D01*
X134229940Y-107707319D01*
X134545309Y-107707319D01*
X134596208Y-107875197D01*
X134830039Y-108165802D01*
X135048968Y-108380098D01*
X135255283Y-108481835D01*
X135327304Y-108360685D01*
X135243917Y-108023886D01*
X135139154Y-107799159D01*
X134908887Y-107575970D01*
X134631833Y-107616233D01*
X134545309Y-107707319D01*
X134229940Y-107707319D01*
X134311631Y-107535308D01*
X134588637Y-107335424D01*
X134698680Y-107318401D01*
X135074136Y-107400020D01*
X135385627Y-107640001D01*
X135528873Y-107968170D01*
X135534772Y-108074118D01*
X135519985Y-108360685D01*
X135502063Y-108708016D01*
G37*
G36*
X123044990Y-108707377D02*
G01*
X122890791Y-109075523D01*
X122868171Y-109129529D01*
X122657160Y-109324279D01*
X122329678Y-109433032D01*
X122218910Y-109422087D01*
X121887137Y-109230720D01*
X121661725Y-108842178D01*
X121591531Y-108392918D01*
X121851721Y-108392918D01*
X121868295Y-108636475D01*
X121934611Y-108943907D01*
X122081382Y-109075127D01*
X122331092Y-109155105D01*
X122566606Y-109162197D01*
X122671076Y-109075523D01*
X122653335Y-109030797D01*
X122507116Y-108821369D01*
X122261399Y-108524534D01*
X122089230Y-108330730D01*
X121925320Y-108174546D01*
X121862131Y-108200409D01*
X121851721Y-108392918D01*
X121591531Y-108392918D01*
X121578603Y-108310174D01*
X121592148Y-108128317D01*
X121707785Y-107783384D01*
X121988280Y-107783384D01*
X121999384Y-107816289D01*
X122142503Y-108006364D01*
X122397958Y-108272280D01*
X122807635Y-108664776D01*
X122807635Y-108307583D01*
X122800262Y-108198001D01*
X122676378Y-107855483D01*
X122450539Y-107634472D01*
X122189167Y-107609897D01*
X122096113Y-107656642D01*
X121988280Y-107783384D01*
X121707785Y-107783384D01*
X121738791Y-107690896D01*
X122002877Y-107371688D01*
X122329678Y-107248086D01*
X122425147Y-107257261D01*
X122736800Y-107435962D01*
X122958117Y-107786567D01*
X123067909Y-108235047D01*
X123064389Y-108307583D01*
X123044990Y-108707377D01*
G37*
G36*
X177116785Y-103998319D02*
G01*
X177490206Y-104151771D01*
X177639248Y-104318757D01*
X177650895Y-104597507D01*
X177433311Y-104878729D01*
X177006969Y-105121346D01*
X176853827Y-105187238D01*
X176564281Y-105377028D01*
X176503773Y-105577930D01*
X176516180Y-105618254D01*
X176708892Y-105770463D01*
X177052438Y-105795334D01*
X177465431Y-105683898D01*
X177608122Y-105646459D01*
X177704409Y-105735726D01*
X177633975Y-105862874D01*
X177397151Y-106014798D01*
X177042793Y-106112056D01*
X176612439Y-106088260D01*
X176313956Y-105894839D01*
X176202259Y-105553013D01*
X176266241Y-105248527D01*
X176499296Y-105020990D01*
X176953334Y-104831118D01*
X176965205Y-104827208D01*
X177246567Y-104677845D01*
X177363011Y-104505523D01*
X177317238Y-104392241D01*
X177099066Y-104282315D01*
X176800332Y-104276125D01*
X176532840Y-104389321D01*
X176319329Y-104491566D01*
X176230090Y-104402658D01*
X176336079Y-104178806D01*
X176378647Y-104135155D01*
X176705006Y-103993747D01*
X177116785Y-103998319D01*
G37*
G36*
X160497958Y-105065151D02*
G01*
X160479505Y-105448620D01*
X160396217Y-105722313D01*
X160389411Y-105744677D01*
X160194454Y-105943031D01*
X159933225Y-106096150D01*
X159630675Y-106130560D01*
X159347164Y-105941225D01*
X159177873Y-105717356D01*
X159028423Y-105278542D01*
X159026001Y-104813218D01*
X159054254Y-104721742D01*
X159235684Y-104721742D01*
X159322641Y-105192911D01*
X159330611Y-105233209D01*
X159440844Y-105573240D01*
X159578240Y-105771196D01*
X159740698Y-105855965D01*
X159954403Y-105869391D01*
X160020891Y-105722313D01*
X159931858Y-105465835D01*
X159679000Y-105151064D01*
X159235684Y-104721742D01*
X159054254Y-104721742D01*
X159154471Y-104397260D01*
X159481212Y-104397260D01*
X159583672Y-104596232D01*
X159820018Y-104862953D01*
X159921966Y-104959890D01*
X160126054Y-105132820D01*
X160209099Y-105129517D01*
X160224839Y-104963299D01*
X160207752Y-104713348D01*
X160071658Y-104364271D01*
X159808611Y-104243785D01*
X159668025Y-104260732D01*
X159486679Y-104359447D01*
X159481212Y-104397260D01*
X159154471Y-104397260D01*
X159155900Y-104392632D01*
X159403418Y-104088033D01*
X159753849Y-103970667D01*
X159831328Y-103973613D01*
X160204693Y-104116237D01*
X160425395Y-104477865D01*
X160485374Y-104963299D01*
X160497958Y-105065151D01*
G37*
G36*
X148011031Y-105262245D02*
G01*
X147905966Y-105696921D01*
X147886048Y-105726098D01*
X147712636Y-105980123D01*
X147541001Y-106079132D01*
X147174720Y-106117881D01*
X146864390Y-105931508D01*
X146649347Y-105553171D01*
X146587224Y-105138247D01*
X146845717Y-105138247D01*
X146888770Y-105471374D01*
X147005915Y-105718624D01*
X147108479Y-105800057D01*
X147376620Y-105878369D01*
X147573418Y-105777812D01*
X147574980Y-105726098D01*
X147466876Y-105503176D01*
X147243753Y-105197436D01*
X146849391Y-104721742D01*
X146845717Y-105138247D01*
X146587224Y-105138247D01*
X146568925Y-105016025D01*
X146583627Y-104802130D01*
X146729210Y-104363920D01*
X146740515Y-104351363D01*
X146978603Y-104351363D01*
X146995735Y-104402340D01*
X147139846Y-104625842D01*
X147382730Y-104931739D01*
X147525924Y-105097220D01*
X147701943Y-105273282D01*
X147775300Y-105264396D01*
X147792408Y-105088302D01*
X147730870Y-104686056D01*
X147533799Y-104366509D01*
X147246916Y-104243785D01*
X147093013Y-104263373D01*
X146978603Y-104351363D01*
X146740515Y-104351363D01*
X146987425Y-104077105D01*
X147304716Y-103967216D01*
X147627529Y-104059785D01*
X147902308Y-104380344D01*
X147903670Y-104382948D01*
X148014657Y-104787214D01*
X148012359Y-105088302D01*
X148011031Y-105262245D01*
G37*
G36*
X135543593Y-105225567D02*
G01*
X135427742Y-105651505D01*
X135371628Y-105722313D01*
X135187460Y-105954708D01*
X135036875Y-106047616D01*
X134660714Y-106136490D01*
X134361821Y-105963914D01*
X134138058Y-105529021D01*
X134054882Y-105068361D01*
X134104925Y-104721742D01*
X134245361Y-104721742D01*
X134332318Y-105192911D01*
X134340288Y-105233209D01*
X134450521Y-105573240D01*
X134587917Y-105771196D01*
X134750375Y-105855965D01*
X134964081Y-105869391D01*
X135030569Y-105722313D01*
X134941536Y-105465835D01*
X134688678Y-105151064D01*
X134245361Y-104721742D01*
X134104925Y-104721742D01*
X134124221Y-104588091D01*
X134285725Y-104317090D01*
X134537662Y-104317090D01*
X134539281Y-104503826D01*
X134780197Y-104814693D01*
X134974024Y-105005400D01*
X135215676Y-105174696D01*
X135318077Y-105114251D01*
X135286518Y-104824161D01*
X135263641Y-104730295D01*
X135163065Y-104411266D01*
X135040469Y-104273469D01*
X134839540Y-104243785D01*
X134776303Y-104245240D01*
X134537662Y-104317090D01*
X134285725Y-104317090D01*
X134342463Y-104221885D01*
X134676622Y-104021226D01*
X135093707Y-104037597D01*
X135187061Y-104080365D01*
X135419003Y-104353096D01*
X135539264Y-104763798D01*
X135542549Y-105114251D01*
X135543593Y-105225567D01*
G37*
G36*
X123087895Y-105068374D02*
G01*
X123025897Y-105515043D01*
X122873037Y-105772389D01*
X122807635Y-105882495D01*
X122571996Y-106065213D01*
X122329678Y-106155613D01*
X122201074Y-106136458D01*
X121891744Y-105929093D01*
X121666010Y-105555651D01*
X121587062Y-105138247D01*
X121855724Y-105138247D01*
X121898554Y-105471388D01*
X122015592Y-105718624D01*
X122109960Y-105793920D01*
X122348931Y-105882495D01*
X122410924Y-105879185D01*
X122581654Y-105772389D01*
X122533719Y-105529983D01*
X122269379Y-105172165D01*
X121859727Y-104721742D01*
X121855724Y-105138247D01*
X121587062Y-105138247D01*
X121578603Y-105093525D01*
X121585924Y-104927927D01*
X121713928Y-104431925D01*
X121780038Y-104346204D01*
X121993830Y-104346204D01*
X122012562Y-104395705D01*
X122159507Y-104616574D01*
X122403508Y-104921422D01*
X122807635Y-105394221D01*
X122807635Y-104982874D01*
X122762696Y-104655675D01*
X122643764Y-104407656D01*
X122566454Y-104348257D01*
X122322227Y-104258777D01*
X122091808Y-104254354D01*
X121993830Y-104346204D01*
X121780038Y-104346204D01*
X121973823Y-104094934D01*
X122329678Y-103970667D01*
X122525014Y-104007861D01*
X122818584Y-104239303D01*
X123012501Y-104617967D01*
X123073583Y-104982874D01*
X123087895Y-105068374D01*
G37*
G36*
X177384756Y-100775284D02*
G01*
X177640489Y-100958097D01*
X177671436Y-101214627D01*
X177468278Y-101494940D01*
X177021696Y-101749109D01*
X176929695Y-101787006D01*
X176583913Y-101997219D01*
X176475377Y-102234674D01*
X176478055Y-102304808D01*
X176535595Y-102428281D01*
X176721740Y-102459593D01*
X177106314Y-102419160D01*
X177270365Y-102397580D01*
X177556194Y-102376236D01*
X177637636Y-102420703D01*
X177561939Y-102543918D01*
X177314051Y-102687553D01*
X176828583Y-102714255D01*
X176716669Y-102705400D01*
X176417300Y-102653134D01*
X176294349Y-102527031D01*
X176270538Y-102264858D01*
X176299229Y-102022152D01*
X176452428Y-101798432D01*
X176799126Y-101582062D01*
X176939918Y-101503788D01*
X177212777Y-101311562D01*
X177315469Y-101171204D01*
X177216529Y-101056746D01*
X176952558Y-100995147D01*
X176636825Y-101015215D01*
X176383089Y-101122850D01*
X176331302Y-101164588D01*
X176211886Y-101213119D01*
X176221826Y-101030298D01*
X176260618Y-100919202D01*
X176444464Y-100783110D01*
X176829761Y-100720627D01*
X176913554Y-100716116D01*
X177384756Y-100775284D01*
G37*
G36*
X175792581Y-101717441D02*
G01*
X175792581Y-102741634D01*
X175101726Y-102741634D01*
X174867317Y-102735345D01*
X174562979Y-102689275D01*
X174495270Y-102605075D01*
X174504541Y-102593028D01*
X174709422Y-102504702D01*
X175049565Y-102468516D01*
X175319457Y-102453434D01*
X175482917Y-102359412D01*
X175519463Y-102127118D01*
X175517358Y-102051836D01*
X175433949Y-101839160D01*
X175170006Y-101785721D01*
X174953294Y-101750423D01*
X174904947Y-101649161D01*
X174992982Y-101575309D01*
X175254404Y-101512602D01*
X175421963Y-101468739D01*
X175519463Y-101239484D01*
X175505425Y-101121267D01*
X175375588Y-100998074D01*
X175049565Y-100966366D01*
X175007782Y-100965835D01*
X174676859Y-100922158D01*
X174495270Y-100829807D01*
X174497976Y-100782703D01*
X174690388Y-100716918D01*
X175101726Y-100693247D01*
X175792581Y-100693247D01*
X175792581Y-101717441D01*
G37*
G36*
X160453372Y-102161410D02*
G01*
X160390701Y-102366097D01*
X160356594Y-102477494D01*
X160238993Y-102611247D01*
X159915964Y-102731906D01*
X159547225Y-102701465D01*
X159251507Y-102515807D01*
X159214947Y-102460745D01*
X159107365Y-102134497D01*
X159064087Y-101717441D01*
X159064992Y-101645756D01*
X159067914Y-101629158D01*
X159268925Y-101629158D01*
X159292465Y-101844499D01*
X159410289Y-102204376D01*
X159544199Y-102346418D01*
X159779266Y-102455656D01*
X159993957Y-102470676D01*
X160082730Y-102366097D01*
X160063999Y-102316596D01*
X159917054Y-102095727D01*
X159673053Y-101790879D01*
X159541445Y-101638738D01*
X159359989Y-101455356D01*
X159284177Y-101458176D01*
X159268925Y-101629158D01*
X159067914Y-101629158D01*
X159158994Y-101111849D01*
X159169567Y-101098641D01*
X159507995Y-101098641D01*
X159576987Y-101300806D01*
X159824735Y-101588610D01*
X160245786Y-101990559D01*
X160201173Y-101513721D01*
X160175366Y-101363243D01*
X160017680Y-101063464D01*
X159780639Y-100949743D01*
X159526638Y-101063707D01*
X159507995Y-101098641D01*
X159169567Y-101098641D01*
X159411259Y-100796714D01*
X159827078Y-100693247D01*
X159874319Y-100694403D01*
X160226756Y-100817810D01*
X160431650Y-101154265D01*
X160497958Y-101717441D01*
X160497667Y-101749849D01*
X160471760Y-101990559D01*
X160453372Y-102161410D01*
G37*
G36*
X147127578Y-100707420D02*
G01*
X147343079Y-100826878D01*
X147561552Y-101006855D01*
X147661399Y-101152119D01*
X147638616Y-101192041D01*
X147456560Y-101239484D01*
X147334640Y-101304422D01*
X147270111Y-101537616D01*
X147251721Y-101990559D01*
X147239548Y-102299660D01*
X147189946Y-102618164D01*
X147115162Y-102741634D01*
X147108758Y-102740676D01*
X147041415Y-102593206D01*
X146995547Y-102233506D01*
X146978603Y-101717441D01*
X146979057Y-101620960D01*
X146995877Y-101150714D01*
X147032086Y-100820806D01*
X147081022Y-100697590D01*
X147127578Y-100707420D01*
G37*
G36*
X135534682Y-101810980D02*
G01*
X135484675Y-102247845D01*
X135424162Y-102398703D01*
X135366613Y-102542174D01*
X135283797Y-102616434D01*
X134946656Y-102728799D01*
X134564068Y-102700012D01*
X134274152Y-102531433D01*
X134240913Y-102484013D01*
X134127345Y-102133982D01*
X134092206Y-101674159D01*
X134092608Y-101670111D01*
X134305463Y-101670111D01*
X134377494Y-102016164D01*
X134518618Y-102274379D01*
X134801396Y-102443874D01*
X134931486Y-102455491D01*
X135071816Y-102398703D01*
X135014520Y-102208486D01*
X134757692Y-101859337D01*
X134577066Y-101663567D01*
X134378620Y-101549842D01*
X134305463Y-101670111D01*
X134092608Y-101670111D01*
X134136488Y-101228042D01*
X134193901Y-101085812D01*
X134551721Y-101085812D01*
X134571012Y-101166520D01*
X134709371Y-101396416D01*
X134919094Y-101641851D01*
X135126025Y-101821807D01*
X135256008Y-101855268D01*
X135313907Y-101685868D01*
X135246056Y-101397761D01*
X135073654Y-101128495D01*
X134849786Y-100991008D01*
X134664504Y-100994077D01*
X134551721Y-101085812D01*
X134193901Y-101085812D01*
X134261184Y-100919129D01*
X134344047Y-100841696D01*
X134689555Y-100710796D01*
X135078211Y-100730918D01*
X135375896Y-100903894D01*
X135427805Y-100990565D01*
X135515953Y-101351810D01*
X135529579Y-101685868D01*
X135534682Y-101810980D01*
G37*
G36*
X123080753Y-101717441D02*
G01*
X123044786Y-102004204D01*
X122933690Y-102357506D01*
X122922274Y-102393811D01*
X122921765Y-102394928D01*
X122708699Y-102665244D01*
X122356953Y-102741634D01*
X122335019Y-102741431D01*
X121919758Y-102624945D01*
X121669621Y-102292718D01*
X121583954Y-101749003D01*
X121851721Y-101749003D01*
X121864257Y-101933222D01*
X121934611Y-102252509D01*
X122080327Y-102387505D01*
X122330506Y-102463456D01*
X122566430Y-102459017D01*
X122671076Y-102357506D01*
X122660225Y-102321758D01*
X122517268Y-102123613D01*
X122261399Y-101854000D01*
X122155615Y-101753463D01*
X121951248Y-101580726D01*
X121867718Y-101583793D01*
X121851721Y-101749003D01*
X121583954Y-101749003D01*
X121582946Y-101742603D01*
X121588472Y-101508998D01*
X121677711Y-101077376D01*
X121988280Y-101077376D01*
X121999131Y-101113124D01*
X122142088Y-101311269D01*
X122397958Y-101580882D01*
X122503742Y-101681418D01*
X122708109Y-101854156D01*
X122791638Y-101851089D01*
X122807635Y-101685879D01*
X122781879Y-101382017D01*
X122624497Y-101067762D01*
X122315068Y-100966366D01*
X122104838Y-100992555D01*
X121988280Y-101077376D01*
X121677711Y-101077376D01*
X121686191Y-101036362D01*
X121920796Y-100774166D01*
X122312563Y-100693247D01*
X122342965Y-100693737D01*
X122742988Y-100824218D01*
X122993847Y-101172026D01*
X123075724Y-101685879D01*
X123080753Y-101717441D01*
G37*
G36*
X177636130Y-97347548D02*
G01*
X177677299Y-98220799D01*
X177688238Y-98646627D01*
X177678490Y-99052186D01*
X177647445Y-99279133D01*
X177504774Y-99381078D01*
X177185927Y-99448675D01*
X176802208Y-99464831D01*
X176461213Y-99425756D01*
X176270538Y-99327656D01*
X176266184Y-99288385D01*
X176429160Y-99217069D01*
X176808716Y-99191097D01*
X176987697Y-99189596D01*
X177282650Y-99159358D01*
X177406259Y-99059360D01*
X177431291Y-98849699D01*
X177429849Y-98786785D01*
X177349767Y-98564703D01*
X177089893Y-98508301D01*
X176865360Y-98474397D01*
X176748495Y-98371742D01*
X176833256Y-98281929D01*
X177089893Y-98235183D01*
X177152807Y-98233741D01*
X177374889Y-98153659D01*
X177431291Y-97893785D01*
X177427513Y-97782045D01*
X177367968Y-97628994D01*
X177179220Y-97565173D01*
X176789463Y-97552387D01*
X176519979Y-97545108D01*
X176287418Y-97499540D01*
X176292953Y-97407070D01*
X176349207Y-97371727D01*
X176637948Y-97309200D01*
X177037200Y-97304650D01*
X177636130Y-97347548D01*
G37*
G36*
X160438545Y-98861768D02*
G01*
X160367680Y-99011807D01*
X160271954Y-99214484D01*
X160150358Y-99327873D01*
X159818972Y-99460406D01*
X159504389Y-99381773D01*
X159242476Y-99135583D01*
X159069100Y-98765447D01*
X159024498Y-98355171D01*
X159268925Y-98355171D01*
X159291953Y-98565973D01*
X159410289Y-98926956D01*
X159532362Y-99069114D01*
X159771486Y-99178386D01*
X159991652Y-99163646D01*
X160088280Y-99011807D01*
X160078578Y-98963758D01*
X159936411Y-98727231D01*
X159678603Y-98440022D01*
X159538597Y-98306955D01*
X159352095Y-98152628D01*
X159280546Y-98172498D01*
X159268925Y-98355171D01*
X159024498Y-98355171D01*
X159020128Y-98314973D01*
X159131428Y-97827771D01*
X159139285Y-97809171D01*
X159252727Y-97651472D01*
X159535881Y-97651472D01*
X159578458Y-97870028D01*
X159833908Y-98213959D01*
X160244070Y-98670692D01*
X160200315Y-98227731D01*
X160149105Y-97994020D01*
X159982193Y-97701357D01*
X159763889Y-97558981D01*
X159554933Y-97623736D01*
X159535881Y-97651472D01*
X159252727Y-97651472D01*
X159402965Y-97442622D01*
X159753596Y-97328367D01*
X160163246Y-97475931D01*
X160359684Y-97644409D01*
X160470008Y-97902987D01*
X160497958Y-98329998D01*
X160459893Y-98670692D01*
X160438545Y-98861768D01*
G37*
G36*
X148070841Y-98399861D02*
G01*
X147999167Y-98858974D01*
X147900122Y-99042397D01*
X147764523Y-99293516D01*
X147526929Y-99438923D01*
X147167958Y-99428995D01*
X146818657Y-99238211D01*
X146776625Y-99196065D01*
X146618058Y-98873682D01*
X146575821Y-98426698D01*
X146842044Y-98426698D01*
X146858411Y-98667062D01*
X146924934Y-98975089D01*
X146929813Y-98986776D01*
X147113950Y-99147823D01*
X147377086Y-99189852D01*
X147572771Y-99087461D01*
X147575149Y-99042397D01*
X147467487Y-98830571D01*
X147239433Y-98539070D01*
X147080723Y-98363165D01*
X146915013Y-98206129D01*
X146852009Y-98231988D01*
X146842044Y-98426698D01*
X146575821Y-98426698D01*
X146568925Y-98353725D01*
X146568943Y-98336684D01*
X146595140Y-97913382D01*
X146642269Y-97795671D01*
X146978603Y-97795671D01*
X146989380Y-97832239D01*
X147132289Y-98032761D01*
X147388280Y-98303462D01*
X147797958Y-98695958D01*
X147797958Y-98355112D01*
X147788059Y-98211511D01*
X147667605Y-97851698D01*
X147454127Y-97622230D01*
X147203189Y-97594193D01*
X147087910Y-97654887D01*
X146978603Y-97795671D01*
X146642269Y-97795671D01*
X146697684Y-97657262D01*
X146915917Y-97467885D01*
X147206253Y-97346921D01*
X147547252Y-97389709D01*
X147820963Y-97613768D01*
X148003466Y-97967639D01*
X148063866Y-98355112D01*
X148070841Y-98399861D01*
G37*
G36*
X134934087Y-97579699D02*
G01*
X135063730Y-97745021D01*
X135072024Y-97884854D01*
X134893119Y-97874889D01*
X134828664Y-97860493D01*
X134741759Y-97930287D01*
X134699421Y-98172948D01*
X134688280Y-98638309D01*
X134677707Y-99005714D01*
X134631038Y-99322787D01*
X134551721Y-99395936D01*
X134549386Y-99394355D01*
X134481680Y-99217573D01*
X134433507Y-98848078D01*
X134415162Y-98363683D01*
X134415486Y-98284094D01*
X134447235Y-97744056D01*
X134537750Y-97456466D01*
X134696783Y-97406591D01*
X134934087Y-97579699D01*
G37*
G36*
X122507205Y-97579699D02*
G01*
X122644595Y-97767766D01*
X122642006Y-97914801D01*
X122466237Y-97912681D01*
X122408521Y-97898356D01*
X122317485Y-97959750D01*
X122273095Y-98193292D01*
X122261399Y-98649146D01*
X122247011Y-99015454D01*
X122197668Y-99339899D01*
X122124839Y-99464215D01*
X122118436Y-99463257D01*
X122051093Y-99315786D01*
X122005225Y-98956087D01*
X121988280Y-98440022D01*
X121990107Y-98238386D01*
X122026701Y-97719276D01*
X122118177Y-97447908D01*
X122274892Y-97407106D01*
X122507205Y-97579699D01*
G37*
G36*
X175792581Y-95094323D02*
G01*
X175792581Y-96186796D01*
X175186125Y-96186796D01*
X175018395Y-96181655D01*
X174672151Y-96133207D01*
X174495270Y-96050237D01*
X174487135Y-96020295D01*
X174619055Y-95942471D01*
X174965167Y-95913677D01*
X175096570Y-95912876D01*
X175383347Y-95882469D01*
X175498393Y-95765333D01*
X175519463Y-95504000D01*
X175510742Y-95320162D01*
X175419372Y-95136867D01*
X175170006Y-95094323D01*
X174953294Y-95059025D01*
X174904947Y-94957764D01*
X174992982Y-94883911D01*
X175254404Y-94821204D01*
X175421963Y-94777341D01*
X175519463Y-94548086D01*
X175488537Y-94390443D01*
X175330594Y-94297871D01*
X174973227Y-94274968D01*
X174850782Y-94271486D01*
X174548138Y-94223922D01*
X174426990Y-94138409D01*
X174473068Y-94089218D01*
X174720290Y-94026413D01*
X175109786Y-94001850D01*
X175792581Y-94001850D01*
X175792581Y-95094323D01*
G37*
G36*
X176452549Y-94247267D02*
G01*
X176502380Y-94717617D01*
X176543657Y-95433385D01*
X177001370Y-94718146D01*
X177231981Y-94389650D01*
X177451030Y-94144065D01*
X177581746Y-94078717D01*
X177584038Y-94080298D01*
X177644764Y-94253225D01*
X177687962Y-94619567D01*
X177704409Y-95102382D01*
X177702857Y-95252212D01*
X177669459Y-95728878D01*
X177605561Y-95988847D01*
X177528506Y-96018709D01*
X177455634Y-95805053D01*
X177404288Y-95334469D01*
X177363011Y-94618702D01*
X176904959Y-95334469D01*
X176678292Y-95666687D01*
X176456683Y-95943795D01*
X176324582Y-96050237D01*
X176313134Y-96045756D01*
X176256850Y-95877729D01*
X176217235Y-95515584D01*
X176202259Y-95026043D01*
X176206781Y-94760401D01*
X176244646Y-94304325D01*
X176308411Y-94056315D01*
X176382802Y-94032064D01*
X176452549Y-94247267D01*
G37*
G36*
X159766001Y-94147725D02*
G01*
X159986615Y-94292869D01*
X160088280Y-94444376D01*
X160065405Y-94491858D01*
X159883442Y-94548086D01*
X159761522Y-94613024D01*
X159696993Y-94846218D01*
X159678603Y-95299161D01*
X159666430Y-95608262D01*
X159616828Y-95926766D01*
X159542044Y-96050237D01*
X159521524Y-96037893D01*
X159464665Y-95848600D01*
X159425302Y-95495083D01*
X159405720Y-95060451D01*
X159408201Y-94627809D01*
X159435029Y-94280265D01*
X159488487Y-94100926D01*
X159553013Y-94081421D01*
X159766001Y-94147725D01*
G37*
G36*
X147986109Y-95522966D02*
G01*
X147898945Y-95707763D01*
X147809782Y-95896796D01*
X147539952Y-96096326D01*
X147270270Y-96155099D01*
X147069104Y-96112978D01*
X146842044Y-95913677D01*
X146659135Y-95587164D01*
X146588146Y-95191937D01*
X146846047Y-95191937D01*
X146856251Y-95336230D01*
X146990162Y-95664446D01*
X147229736Y-95832841D01*
X147511830Y-95785158D01*
X147575278Y-95707763D01*
X147518946Y-95523910D01*
X147269497Y-95214311D01*
X146850050Y-94752925D01*
X146846047Y-95191937D01*
X146588146Y-95191937D01*
X146573731Y-95111680D01*
X146605003Y-94622131D01*
X146703862Y-94377387D01*
X146984153Y-94377387D01*
X147002885Y-94426888D01*
X147149829Y-94647757D01*
X147393830Y-94952605D01*
X147525438Y-95104746D01*
X147706894Y-95288128D01*
X147782706Y-95285308D01*
X147797958Y-95114326D01*
X147732834Y-94719020D01*
X147533703Y-94398007D01*
X147246916Y-94274968D01*
X147093597Y-94293734D01*
X146984153Y-94377387D01*
X146703862Y-94377387D01*
X146759022Y-94240828D01*
X146837881Y-94156902D01*
X147176195Y-94012985D01*
X147552964Y-94064615D01*
X147858494Y-94305353D01*
X147996034Y-94602253D01*
X148053378Y-95062298D01*
X148045781Y-95114326D01*
X147986109Y-95522966D01*
G37*
G36*
X135543431Y-95233798D02*
G01*
X135463302Y-95653612D01*
X135423361Y-95703510D01*
X135230632Y-95944283D01*
X134959411Y-96099458D01*
X134722885Y-96124490D01*
X134635955Y-96094822D01*
X134414584Y-96050237D01*
X134350853Y-96021169D01*
X134221670Y-95804059D01*
X134118826Y-95453731D01*
X134065918Y-95064964D01*
X134067937Y-95032424D01*
X134278603Y-95032424D01*
X134327820Y-95277681D01*
X134491185Y-95610174D01*
X134632827Y-95785227D01*
X134855458Y-95904527D01*
X135038637Y-95762623D01*
X135047683Y-95703510D01*
X134944132Y-95473757D01*
X134705298Y-95184873D01*
X134619916Y-95100220D01*
X134398503Y-94902894D01*
X134300629Y-94885975D01*
X134278603Y-95032424D01*
X134067937Y-95032424D01*
X134086541Y-94732535D01*
X134220486Y-94348272D01*
X134537662Y-94348272D01*
X134539281Y-94535009D01*
X134780197Y-94845876D01*
X134974024Y-95036582D01*
X135215676Y-95205879D01*
X135318077Y-95145434D01*
X135286518Y-94855344D01*
X135263641Y-94761478D01*
X135163065Y-94442449D01*
X135040469Y-94304652D01*
X134839540Y-94274968D01*
X134776303Y-94276422D01*
X134537662Y-94348272D01*
X134220486Y-94348272D01*
X134233546Y-94310806D01*
X134469180Y-94070461D01*
X134836756Y-94001850D01*
X134906407Y-94004697D01*
X135262125Y-94154516D01*
X135474443Y-94533724D01*
X135544879Y-95144771D01*
X135544868Y-95145434D01*
X135543431Y-95233798D01*
G37*
G36*
X122250047Y-94102829D02*
G01*
X122469152Y-94278188D01*
X122587524Y-94415101D01*
X122630755Y-94525688D01*
X122487402Y-94548086D01*
X122454480Y-94549871D01*
X122335426Y-94625609D01*
X122276959Y-94855787D01*
X122261399Y-95299161D01*
X122249225Y-95608262D01*
X122199624Y-95926766D01*
X122124839Y-96050237D01*
X122094328Y-96028048D01*
X122036193Y-95817459D01*
X122001110Y-95451249D01*
X121989842Y-95011979D01*
X122003156Y-94582208D01*
X122041816Y-94244498D01*
X122106589Y-94081409D01*
X122250047Y-94102829D01*
G37*
G36*
X177581919Y-90727421D02*
G01*
X177644498Y-90888589D01*
X177688064Y-91250066D01*
X177704409Y-91748624D01*
X177704282Y-91796653D01*
X177684619Y-92301724D01*
X177636659Y-92645733D01*
X177567850Y-92772817D01*
X177508548Y-92694656D01*
X177452619Y-92409702D01*
X177430856Y-91987602D01*
X177430422Y-91202387D01*
X176907964Y-91988187D01*
X176889938Y-92015164D01*
X176621572Y-92384941D01*
X176407945Y-92624231D01*
X176293883Y-92682362D01*
X176273351Y-92648717D01*
X176225505Y-92405975D01*
X176203697Y-92021569D01*
X176206026Y-91578356D01*
X176230590Y-91159190D01*
X176275488Y-90846930D01*
X176338818Y-90724430D01*
X176391475Y-90780046D01*
X176451862Y-91039582D01*
X176475377Y-91439543D01*
X176475377Y-92154655D01*
X176956962Y-91439543D01*
X177199062Y-91103367D01*
X177431560Y-90829513D01*
X177571478Y-90724430D01*
X177581919Y-90727421D01*
G37*
G36*
X160497958Y-91624190D02*
G01*
X160493728Y-91782508D01*
X160444106Y-92211120D01*
X160390873Y-92392121D01*
X160356594Y-92508677D01*
X160252111Y-92628422D01*
X159935447Y-92758296D01*
X159573180Y-92753100D01*
X159296625Y-92601354D01*
X159284027Y-92585779D01*
X159097126Y-92190689D01*
X159045519Y-91717830D01*
X159055102Y-91655182D01*
X159274475Y-91655182D01*
X159295775Y-91877873D01*
X159410289Y-92235558D01*
X159534813Y-92371934D01*
X159770973Y-92484813D01*
X159991123Y-92499777D01*
X160088280Y-92392121D01*
X160071148Y-92341144D01*
X159927037Y-92117642D01*
X159684153Y-91811745D01*
X159540959Y-91646264D01*
X159364940Y-91470202D01*
X159291583Y-91479088D01*
X159274475Y-91655182D01*
X159055102Y-91655182D01*
X159116856Y-91251458D01*
X159227465Y-91023086D01*
X159529798Y-91023086D01*
X159566387Y-91216831D01*
X159811210Y-91550857D01*
X160213740Y-92021742D01*
X160219290Y-91582729D01*
X160208918Y-91436309D01*
X160076591Y-91111269D01*
X159842457Y-90939382D01*
X159570423Y-90980009D01*
X159529798Y-91023086D01*
X159227465Y-91023086D01*
X159298786Y-90875832D01*
X159578960Y-90675209D01*
X159844823Y-90673103D01*
X160187638Y-90800515D01*
X160345721Y-90934106D01*
X160466025Y-91193835D01*
X160494882Y-91582729D01*
X160497958Y-91624190D01*
G37*
G36*
X148071076Y-91792944D02*
G01*
X148024360Y-92092188D01*
X147912631Y-92346224D01*
X147858494Y-92469314D01*
X147669329Y-92648970D01*
X147314894Y-92771091D01*
X146960209Y-92725526D01*
X146710289Y-92508677D01*
X146605497Y-92213446D01*
X146571971Y-91780185D01*
X146842044Y-91780185D01*
X146854580Y-91964404D01*
X146924934Y-92283691D01*
X146928096Y-92291501D01*
X147112578Y-92457170D01*
X147378906Y-92495513D01*
X147580204Y-92384037D01*
X147585671Y-92346224D01*
X147483211Y-92147252D01*
X147246865Y-91880531D01*
X147144917Y-91783594D01*
X146940829Y-91610664D01*
X146857784Y-91613967D01*
X146842044Y-91780185D01*
X146571971Y-91780185D01*
X146566186Y-91705430D01*
X146651963Y-91211371D01*
X146700993Y-91123169D01*
X146978603Y-91123169D01*
X146989707Y-91156074D01*
X147132826Y-91346149D01*
X147388280Y-91612065D01*
X147797958Y-92004560D01*
X147797958Y-91647368D01*
X147790584Y-91537786D01*
X147666701Y-91195268D01*
X147440862Y-90974257D01*
X147179490Y-90949682D01*
X147086436Y-90996427D01*
X146978603Y-91123169D01*
X146700993Y-91123169D01*
X146852602Y-90850431D01*
X147106203Y-90676263D01*
X147341728Y-90645592D01*
X147442751Y-90680282D01*
X147650648Y-90724430D01*
X147764617Y-90806018D01*
X147909389Y-91073785D01*
X148024283Y-91435142D01*
X148052038Y-91647368D01*
X148071076Y-91792944D01*
G37*
G36*
X135533203Y-92001723D02*
G01*
X135400207Y-92425127D01*
X135384893Y-92473882D01*
X135279077Y-92606036D01*
X134952900Y-92758410D01*
X134577769Y-92747144D01*
X134274152Y-92562615D01*
X134228944Y-92487800D01*
X134131612Y-92156799D01*
X134086732Y-91731263D01*
X134087574Y-91698411D01*
X134307908Y-91698411D01*
X134377494Y-92047347D01*
X134518618Y-92305562D01*
X134801396Y-92475057D01*
X134886885Y-92483803D01*
X135071320Y-92425127D01*
X135031816Y-92217961D01*
X134768177Y-91858658D01*
X134595071Y-91681086D01*
X134387707Y-91572812D01*
X134307908Y-91698411D01*
X134087574Y-91698411D01*
X134095061Y-91406140D01*
X134182562Y-91089431D01*
X134599993Y-91089431D01*
X134681692Y-91302668D01*
X134881148Y-91592727D01*
X135105048Y-91807731D01*
X135278769Y-91840303D01*
X135323702Y-91662948D01*
X135206254Y-91305360D01*
X135159179Y-91218709D01*
X134948472Y-90989732D01*
X134737802Y-90928813D01*
X134602477Y-91065828D01*
X134599993Y-91089431D01*
X134182562Y-91089431D01*
X134183331Y-91086646D01*
X134396151Y-90848992D01*
X134465773Y-90793272D01*
X134735688Y-90621849D01*
X134952771Y-90636816D01*
X135238010Y-90836358D01*
X135404933Y-91049188D01*
X135536741Y-91491796D01*
X135535554Y-91662948D01*
X135533203Y-92001723D01*
G37*
G36*
X122132634Y-90736642D02*
G01*
X122350941Y-90855758D01*
X122570835Y-91042182D01*
X122671076Y-91197912D01*
X122642793Y-91238604D01*
X122466237Y-91221283D01*
X122408521Y-91206959D01*
X122317485Y-91268352D01*
X122273095Y-91501894D01*
X122261399Y-91957748D01*
X122247011Y-92324056D01*
X122197668Y-92648501D01*
X122124839Y-92772817D01*
X122118436Y-92771859D01*
X122051093Y-92624388D01*
X122005225Y-92264689D01*
X121988280Y-91748624D01*
X121988735Y-91652142D01*
X122005554Y-91181897D01*
X122041764Y-90851988D01*
X122090700Y-90728773D01*
X122132634Y-90736642D01*
G37*
G36*
X165081973Y-87479913D02*
G01*
X165125792Y-87835472D01*
X165140968Y-88422177D01*
X165140311Y-88556458D01*
X165121139Y-89064316D01*
X165078372Y-89362811D01*
X165015973Y-89420290D01*
X164929189Y-89269666D01*
X164845274Y-88959858D01*
X164813268Y-88800030D01*
X164684978Y-88610093D01*
X164481800Y-88682216D01*
X164202949Y-89016470D01*
X164115994Y-89135293D01*
X163898913Y-89360416D01*
X163752294Y-89412852D01*
X163731235Y-89376590D01*
X163787038Y-89173645D01*
X163973378Y-88877708D01*
X164189743Y-88578021D01*
X164296306Y-88325653D01*
X164227538Y-88116765D01*
X163984425Y-87860642D01*
X163952250Y-87829466D01*
X163761740Y-87584796D01*
X163727014Y-87414785D01*
X163806672Y-87407686D01*
X164033285Y-87540981D01*
X164337322Y-87803747D01*
X164867850Y-88321794D01*
X164867850Y-87892462D01*
X164867864Y-87886348D01*
X164908608Y-87562048D01*
X165004409Y-87378731D01*
X165012074Y-87375086D01*
X165081973Y-87479913D01*
G37*
G36*
X163095428Y-87517867D02*
G01*
X163170640Y-87590419D01*
X163337524Y-87818493D01*
X163337072Y-87954590D01*
X163160861Y-87943864D01*
X163130614Y-87934003D01*
X163022804Y-87965435D01*
X162970014Y-88166826D01*
X162956022Y-88589290D01*
X162948524Y-88868077D01*
X162911384Y-89231273D01*
X162853603Y-89416644D01*
X162828569Y-89415898D01*
X162777346Y-89250910D01*
X162735691Y-88922085D01*
X162707732Y-88504807D01*
X162697599Y-88074463D01*
X162709419Y-87706436D01*
X162747322Y-87476111D01*
X162782703Y-87400452D01*
X162888820Y-87361748D01*
X163095428Y-87517867D01*
G37*
G36*
X152589744Y-87314093D02*
G01*
X152654513Y-87481720D01*
X152698116Y-87861905D01*
X152714087Y-88402925D01*
X152713632Y-88500655D01*
X152692678Y-89018808D01*
X152645155Y-89367630D01*
X152577528Y-89495398D01*
X152481254Y-89377925D01*
X152440968Y-89093780D01*
X152412341Y-88802867D01*
X152282490Y-88619819D01*
X152053080Y-88688177D01*
X151729849Y-89008627D01*
X151580286Y-89181622D01*
X151341074Y-89402561D01*
X151247675Y-89403838D01*
X151314148Y-89201315D01*
X151554548Y-88810850D01*
X151937733Y-88257914D01*
X151550650Y-87853887D01*
X151325623Y-87589213D01*
X151238098Y-87402695D01*
X151325268Y-87370297D01*
X151555519Y-87497768D01*
X151897239Y-87790856D01*
X152440968Y-88321794D01*
X152440968Y-87816123D01*
X152442994Y-87729369D01*
X152489286Y-87430973D01*
X152577528Y-87310452D01*
X152589744Y-87314093D01*
G37*
G36*
X150142792Y-87311283D02*
G01*
X150432183Y-87416701D01*
X150690495Y-87633096D01*
X150802259Y-87866442D01*
X150754931Y-87978122D01*
X150612956Y-87961106D01*
X150479757Y-87788409D01*
X150441324Y-87720845D01*
X150214977Y-87597236D01*
X149940657Y-87623771D01*
X149755284Y-87798534D01*
X149747223Y-87880745D01*
X149885093Y-88176415D01*
X150237527Y-88588918D01*
X150480775Y-88853013D01*
X150712664Y-89149387D01*
X150802259Y-89329868D01*
X150789028Y-89371073D01*
X150577104Y-89463651D01*
X150119463Y-89495398D01*
X149873510Y-89486182D01*
X149559485Y-89436738D01*
X149436667Y-89358839D01*
X149442620Y-89337695D01*
X149608344Y-89255552D01*
X149930515Y-89222280D01*
X150424362Y-89222280D01*
X149930515Y-88675650D01*
X149744085Y-88454808D01*
X149522912Y-88139379D01*
X149436667Y-87934329D01*
X149536542Y-87664888D01*
X149800949Y-87415995D01*
X150119463Y-87310452D01*
X150142792Y-87311283D01*
G37*
G36*
X140158164Y-87384740D02*
G01*
X140223057Y-87576227D01*
X140265727Y-87943656D01*
X140284705Y-88399254D01*
X140278521Y-88855247D01*
X140245704Y-89223861D01*
X140184786Y-89417323D01*
X140105509Y-89405985D01*
X140035142Y-89201104D01*
X139952538Y-88848909D01*
X139794860Y-88654586D01*
X139560842Y-88718021D01*
X139235492Y-89036121D01*
X139058137Y-89229083D01*
X138857028Y-89379223D01*
X138792856Y-89328879D01*
X138876771Y-89106552D01*
X139119924Y-88740744D01*
X139454793Y-88301707D01*
X139119924Y-87987114D01*
X139104120Y-87972035D01*
X138878243Y-87695225D01*
X138785054Y-87463054D01*
X138842900Y-87419400D01*
X139054427Y-87546504D01*
X139399571Y-87856688D01*
X140014087Y-88459790D01*
X140014087Y-87877062D01*
X140017376Y-87733860D01*
X140062232Y-87441626D01*
X140150646Y-87378731D01*
X140158164Y-87384740D01*
G37*
G36*
X137807950Y-87316718D02*
G01*
X138116763Y-87365570D01*
X138238818Y-87447011D01*
X138238719Y-87449998D01*
X138114054Y-87544437D01*
X137824336Y-87583570D01*
X137599221Y-87593196D01*
X137485298Y-87663758D01*
X137551218Y-87847711D01*
X137668417Y-88095053D01*
X137639453Y-88226703D01*
X137419463Y-88305934D01*
X137265997Y-88386573D01*
X137156696Y-88617962D01*
X137205067Y-88894035D01*
X137386153Y-89125304D01*
X137675001Y-89222280D01*
X137853444Y-89173399D01*
X138125646Y-88996276D01*
X138240864Y-88895944D01*
X138353045Y-88847282D01*
X138375377Y-88989490D01*
X138335278Y-89134021D01*
X138136399Y-89347901D01*
X138009946Y-89412806D01*
X137601343Y-89474491D01*
X137176730Y-89282816D01*
X137168363Y-89276865D01*
X136924558Y-88954746D01*
X136898133Y-88561619D01*
X137096598Y-88199062D01*
X137234807Y-87999594D01*
X137164878Y-87820598D01*
X137076273Y-87720241D01*
X137005545Y-87496190D01*
X137189846Y-87357788D01*
X137624302Y-87310452D01*
X137807950Y-87316718D01*
G37*
G36*
X127600078Y-87314516D02*
G01*
X127664552Y-87484487D01*
X127707901Y-87867066D01*
X127723764Y-88410984D01*
X127723708Y-88451218D01*
X127706378Y-89014969D01*
X127659973Y-89346997D01*
X127587205Y-89427118D01*
X127502193Y-89303396D01*
X127450646Y-89017441D01*
X127416559Y-88794736D01*
X127293370Y-88594960D01*
X127187936Y-88566996D01*
X127056922Y-88644723D01*
X126860262Y-88869851D01*
X126555054Y-89282320D01*
X126400582Y-89464949D01*
X126294505Y-89505242D01*
X126287043Y-89377610D01*
X126377261Y-89130122D01*
X126564226Y-88810850D01*
X126947410Y-88257914D01*
X126560328Y-87853887D01*
X126335301Y-87589213D01*
X126247776Y-87402695D01*
X126334945Y-87370297D01*
X126565196Y-87497768D01*
X126906916Y-87790856D01*
X127450646Y-88321794D01*
X127450646Y-87816123D01*
X127452671Y-87729369D01*
X127498963Y-87430973D01*
X127587205Y-87310452D01*
X127600078Y-87314516D01*
G37*
G36*
X125788984Y-88648643D02*
G01*
X125690467Y-88777612D01*
X125402259Y-88812602D01*
X125218421Y-88821323D01*
X125035125Y-88912694D01*
X124992581Y-89162059D01*
X124957284Y-89378771D01*
X124856022Y-89427118D01*
X124782170Y-89339083D01*
X124719463Y-89077661D01*
X124682255Y-88925791D01*
X124514624Y-88812602D01*
X124420393Y-88797196D01*
X124309786Y-88676043D01*
X124332896Y-88613222D01*
X124514624Y-88539484D01*
X124573514Y-88529570D01*
X124685639Y-88373062D01*
X124696630Y-88249645D01*
X124992581Y-88249645D01*
X125031013Y-88424103D01*
X125197420Y-88539484D01*
X125291408Y-88526038D01*
X125402259Y-88419646D01*
X125369088Y-88326937D01*
X125197420Y-88129807D01*
X125149938Y-88091990D01*
X125022480Y-88052369D01*
X124992581Y-88249645D01*
X124696630Y-88249645D01*
X124719463Y-87993247D01*
X124719537Y-87971583D01*
X124765349Y-87591275D01*
X124897920Y-87466577D01*
X125120515Y-87597447D01*
X125436399Y-87983842D01*
X125699295Y-88389695D01*
X125709669Y-88419646D01*
X125788984Y-88648643D01*
G37*
%TD*%
M02*
