M48
; DRILL file {KiCad 8.0.8-2.fc41} date 2025-02-07T10:50:52+0800
; FORMAT={-:-/ absolute / inch / decimal}
; #@! TF.CreationDate,2025-02-07T10:50:52+08:00
; #@! TF.GenerationSoftware,Kicad,Pcbnew,8.0.8-2.fc41
; #@! TF.FileFunction,Plated,1,2,PTH
FMAT,2
INCH
; #@! TA.AperFunction,Plated,PTH,ViaDrill
T1C0.0118
; #@! TA.AperFunction,Plated,PTH,ComponentDrill
T2C0.0276
; #@! TA.AperFunction,Plated,PTH,ComponentDrill
T3C0.0315
; #@! TA.AperFunction,Plated,PTH,ComponentDrill
T4C0.0394
; #@! TA.AperFunction,Plated,PTH,ComponentDrill
T5C0.0402
; #@! TA.AperFunction,Plated,PTH,ComponentDrill
T6C0.0433
; #@! TA.AperFunction,Plated,PTH,ComponentDrill
T7C0.0512
; #@! TA.AperFunction,Plated,PTH,ComponentDrill
T8C0.0551
; #@! TA.AperFunction,Plated,PTH,ComponentDrill
T9C0.1260
%
G90
G05
T1
X2.333Y-3.761
X2.333Y-3.95
X2.333Y-4.13
X2.333Y-4.3225
X2.333Y-4.515
X2.3364Y-3.5832
X2.718Y-3.933
X2.734Y-3.737
X2.742Y-4.199
X2.852Y-4.252
X2.917Y-3.508
X2.924Y-3.623
X2.926Y-3.664
X3.18Y-4.167
X3.4374Y-4.199
X3.569Y-3.535
X3.574Y-4.417
X3.587Y-4.383
X3.793Y-2.781
X3.86Y-2.689
X3.866Y-1.549
X3.873Y-4.911
X3.889Y-3.686
X3.905Y-4.495
X3.928Y-3.114
X3.955Y-4.407
X3.957Y-4.369
X3.978Y-2.903
X4.1354Y-3.616
X4.161Y-3.694
X4.185Y-3.124
X4.187Y-3.09
X4.207Y-4.155
X4.212Y-3.68
X4.221Y-3.575
X4.24Y-3.182
X4.257Y-4.586
X4.266Y-4.223
X4.267Y-3.749
X4.267Y-3.9
X4.276Y-3.227
X4.276Y-3.322
X4.276Y-3.621
X4.2791Y-3.6733
X4.29Y-3.785
X4.292Y-3.834
X4.292Y-4.152
X4.3016Y-3.471
X4.3456Y-3.2733
X4.3456Y-3.3733
X4.3456Y-3.4233
X4.35Y-3.62
X4.3537Y-3.5315
X4.3759Y-3.084
X4.3831Y-4.1621
X4.3836Y-4.324
X4.384Y-4.218
X4.4094Y-3.886
X4.42Y-4.748
X4.442Y-4.491
X4.4454Y-4.1856
X4.4489Y-3.6005
X4.459Y-3.274
X4.459Y-3.375
X4.465Y-3.008
X4.471Y-3.888
X4.477Y-4.434
X4.48Y-3.938
X4.482Y-4.186
X4.4866Y-3.708
X4.5071Y-4.0839
X4.514Y-2.979
X4.542Y-3.987
X4.542Y-4.412
X4.563Y-3.587
X4.602Y-3.421
X4.605Y-3.735
X4.608Y-3.4989
X4.622Y-3.854
X4.63Y-3.53
X4.6471Y-3.8341
X4.6553Y-4.2097
X4.675Y-4.53
X4.684Y-4.351
X4.6868Y-4.205
X4.711Y-3.566
X4.719Y-3.345
X4.724Y-4.624
X4.728Y-3.785
X4.73Y-3.839
X4.733Y-3.74
X4.743Y-3.691
X4.756Y-3.168
X4.759Y-2.67
X4.788Y-3.218
X4.792Y-3.268
X4.8666Y-3.245
X4.874Y-3.159
X4.878Y-3.693
X4.879Y-3.32
X4.893Y-3.529
X4.894Y-3.602
X4.923Y-3.155
X4.923Y-3.943
X4.939Y-4.366
X4.948Y-2.402
X4.951Y-4.5
X4.966Y-3.048
X4.99Y-4.359
X5.001Y-4.483
X5.002Y-3.52
X5.011Y-3.0584
X5.034Y-2.408
X5.038Y-2.943
X5.054Y-3.895
X5.06Y-3.943
X5.072Y-3.795
X5.076Y-3.744
X5.09Y-3.606
X5.097Y-3.858
X5.098Y-3.383
X5.129Y-3.572
X5.13Y-2.901
X5.132Y-3.278
X5.133Y-3.23
X5.134Y-3.523
X5.181Y-3.424
X5.189Y-1.793
X5.199Y-3.037
X5.209Y-3.476
X5.242Y-1.816
X5.252Y-3.713
X5.253Y-3.227
X5.253Y-3.818
X5.26Y-3.319
X5.268Y-3.179
X5.287Y-4.062
X5.314Y-4.001
X5.3439Y-2.0941
X5.363Y-3.062
X5.411Y-4.841
X5.415Y-3.813
X5.452Y-4.917
X5.454Y-4.3211
X5.475Y-3.573
X5.476Y-5.148
X5.486Y-1.956
X5.487Y-4.487
X5.491Y-4.711
X5.5Y-4.596
X5.546Y-3.732
X5.561Y-4.2049
X5.6068Y-4.8793
X5.637Y-2.258
X5.672Y-3.4
X5.705Y-4.236
X5.789Y-3.435
X5.791Y-2.235
X5.805Y-1.998
X5.843Y-4.8067
X5.847Y-4.311
X5.908Y-3.26
X5.963Y-3.476
X5.971Y-4.1374
X5.972Y-4.844
X5.978Y-3.538
X6.025Y-4.008
X6.041Y-4.549
X6.047Y-4.428
X6.048Y-3.187
X6.322Y-3.52
X6.441Y-1.451
X6.4518Y-4.787
X6.578Y-3.1919
X6.726Y-2.172
X6.8896Y-1.557
X7.039Y-3.541
T2
X2.854Y-1.549
X2.854Y-1.849
X2.854Y-2.049
X2.854Y-2.249
X2.888Y-2.947
X2.888Y-3.247
X2.889Y-2.496
X2.889Y-2.796
X3.089Y-2.496
X3.089Y-2.796
X3.154Y-1.549
X3.154Y-1.849
X3.154Y-2.049
X3.154Y-2.249
X3.188Y-2.947
X3.188Y-3.247
X3.289Y-2.496
X3.289Y-2.796
X3.32Y-1.552
X3.32Y-1.852
X3.32Y-2.052
X3.32Y-2.252
X3.388Y-2.947
X3.388Y-3.247
X3.588Y-2.947
X3.588Y-3.247
X3.589Y-2.496
X3.589Y-2.796
X3.62Y-1.552
X3.62Y-1.852
X3.62Y-2.052
X3.62Y-2.252
T3
X6.441Y-1.235
X6.5394Y-1.235
X6.709Y-5.029
X6.709Y-5.1274
X6.999Y-3.1996
X6.999Y-3.298
X7.113Y-4.3296
X7.113Y-4.428
T4
X2.848Y-4.813
X2.848Y-5.113
X2.849Y-4.382
X2.849Y-4.682
X2.948Y-4.813
X2.948Y-5.113
X2.949Y-4.382
X2.949Y-4.682
X3.348Y-4.813
X3.348Y-5.113
X3.349Y-4.382
X3.349Y-4.682
X3.57Y-3.843
X3.57Y-4.143
X3.571Y-3.42
X3.571Y-3.72
X3.572Y-4.267
X3.572Y-4.567
X3.572Y-4.697
X3.572Y-4.997
X3.67Y-3.843
X3.67Y-4.143
X3.671Y-3.42
X3.671Y-3.72
X3.672Y-4.267
X3.672Y-4.567
X3.672Y-4.697
X3.672Y-4.997
X4.07Y-3.843
X4.07Y-4.143
X4.071Y-3.42
X4.071Y-3.72
X4.072Y-4.267
X4.072Y-4.567
X4.072Y-4.697
X4.072Y-4.997
X4.814Y-1.928
X4.814Y-2.228
X5.214Y-1.928
X5.214Y-2.228
X5.314Y-1.928
X5.314Y-2.228
X6.519Y-1.933
X6.519Y-2.233
X6.619Y-1.933
X6.619Y-2.233
X7.019Y-1.933
X7.019Y-2.233
X7.468Y-2.1098
X7.468Y-2.2098
T5
X3.781Y-2.4954
X3.781Y-2.897
X4.481Y-2.4757
X4.481Y-2.897
X4.6934Y-2.4808
X4.6934Y-2.9021
X5.3934Y-2.4808
X5.3934Y-2.6856
X5.3934Y-2.8824
X6.3806Y-2.4946
X6.3806Y-2.6914
X6.3806Y-2.8962
X7.0806Y-2.4749
X7.0806Y-2.8962
T6
X6.9468Y-4.904
X6.9468Y-5.004
X6.9468Y-5.104
X7.3958Y-4.275
X7.3958Y-4.375
X7.3958Y-4.475
T7
X3.85Y-1.197
X4.0469Y-1.197
X4.2437Y-1.197
X4.4406Y-1.197
X4.6374Y-1.197
X4.8343Y-1.197
X5.0311Y-1.197
X5.228Y-1.197
X5.4249Y-1.197
X5.6217Y-1.197
X5.8186Y-1.197
X6.0154Y-1.197
T8
X2.262Y-1.92
X2.262Y-2.1169
X2.262Y-2.3137
X2.262Y-2.5106
X2.262Y-2.7074
X7.363Y-3.678
X7.363Y-3.8749
T9
X2.239Y-4.9084
X2.242Y-1.305
X7.427Y-4.9084
X7.428Y-1.305
M30
