%TF.GenerationSoftware,KiCad,Pcbnew,8.0.8-2.fc41*%
%TF.CreationDate,2025-02-07T10:50:49+08:00*%
%TF.ProjectId,K9AY_switch,4b394159-5f73-4776-9974-63682e6b6963,rev?*%
%TF.SameCoordinates,Original*%
%TF.FileFunction,Soldermask,Top*%
%TF.FilePolarity,Negative*%
%FSLAX46Y46*%
G04 Gerber Fmt 4.6, Leading zero omitted, Abs format (unit mm)*
G04 Created by KiCad (PCBNEW 8.0.8-2.fc41) date 2025-02-07 10:50:49*
%MOMM*%
%LPD*%
G01*
G04 APERTURE LIST*
G04 Aperture macros list*
%AMRoundRect*
0 Rectangle with rounded corners*
0 $1 Rounding radius*
0 $2 $3 $4 $5 $6 $7 $8 $9 X,Y pos of 4 corners*
0 Add a 4 corners polygon primitive as box body*
4,1,4,$2,$3,$4,$5,$6,$7,$8,$9,$2,$3,0*
0 Add four circle primitives for the rounded corners*
1,1,$1+$1,$2,$3*
1,1,$1+$1,$4,$5*
1,1,$1+$1,$6,$7*
1,1,$1+$1,$8,$9*
0 Add four rect primitives between the rounded corners*
20,1,$1+$1,$2,$3,$4,$5,0*
20,1,$1+$1,$4,$5,$6,$7,0*
20,1,$1+$1,$6,$7,$8,$9,0*
20,1,$1+$1,$8,$9,$2,$3,0*%
G04 Aperture macros list end*
%ADD10RoundRect,0.250000X-0.707107X-0.176777X-0.176777X-0.707107X0.707107X0.176777X0.176777X0.707107X0*%
%ADD11C,2.540000*%
%ADD12R,2.540000X2.540000*%
%ADD13RoundRect,0.250000X0.375000X0.625000X-0.375000X0.625000X-0.375000X-0.625000X0.375000X-0.625000X0*%
%ADD14RoundRect,0.250000X-0.312500X-0.625000X0.312500X-0.625000X0.312500X0.625000X-0.312500X0.625000X0*%
%ADD15RoundRect,0.250000X0.650000X-0.325000X0.650000X0.325000X-0.650000X0.325000X-0.650000X-0.325000X0*%
%ADD16RoundRect,0.250000X-0.650000X0.325000X-0.650000X-0.325000X0.650000X-0.325000X0.650000X0.325000X0*%
%ADD17RoundRect,0.249999X-0.450001X-1.425001X0.450001X-1.425001X0.450001X1.425001X-0.450001X1.425001X0*%
%ADD18R,1.600000X1.600000*%
%ADD19C,1.600000*%
%ADD20R,1.400000X1.400000*%
%ADD21C,1.400000*%
%ADD22C,5.600000*%
%ADD23RoundRect,0.225000X-0.225000X-0.375000X0.225000X-0.375000X0.225000X0.375000X-0.225000X0.375000X0*%
%ADD24RoundRect,0.250000X-0.325000X-0.650000X0.325000X-0.650000X0.325000X0.650000X-0.325000X0.650000X0*%
%ADD25O,1.600000X2.300000*%
%ADD26R,2.500000X1.000000*%
%ADD27R,1.000000X1.800000*%
%ADD28R,2.000000X1.905000*%
%ADD29O,2.000000X1.905000*%
%ADD30RoundRect,0.150000X0.825000X0.150000X-0.825000X0.150000X-0.825000X-0.150000X0.825000X-0.150000X0*%
%ADD31RoundRect,0.250001X-1.149999X-1.149999X1.149999X-1.149999X1.149999X1.149999X-1.149999X1.149999X0*%
%ADD32C,2.800000*%
%ADD33RoundRect,0.150000X-0.587500X-0.150000X0.587500X-0.150000X0.587500X0.150000X-0.587500X0.150000X0*%
%ADD34RoundRect,0.250000X-0.625000X0.312500X-0.625000X-0.312500X0.625000X-0.312500X0.625000X0.312500X0*%
%ADD35RoundRect,0.250000X0.625000X-0.312500X0.625000X0.312500X-0.625000X0.312500X-0.625000X-0.312500X0*%
%ADD36R,2.800000X2.800000*%
%ADD37RoundRect,0.250000X0.312500X0.625000X-0.312500X0.625000X-0.312500X-0.625000X0.312500X-0.625000X0*%
%ADD38RoundRect,0.250000X0.325000X0.650000X-0.325000X0.650000X-0.325000X-0.650000X0.325000X-0.650000X0*%
%ADD39R,1.700000X1.700000*%
%ADD40O,1.700000X1.700000*%
%ADD41RoundRect,0.150000X-0.825000X-0.150000X0.825000X-0.150000X0.825000X0.150000X-0.825000X0.150000X0*%
%ADD42C,0.900000*%
%ADD43R,0.500000X2.500000*%
%ADD44R,2.000000X2.500000*%
%ADD45RoundRect,0.250000X0.707107X0.176777X0.176777X0.707107X-0.707107X-0.176777X-0.176777X-0.707107X0*%
%ADD46RoundRect,0.150000X0.587500X0.150000X-0.587500X0.150000X-0.587500X-0.150000X0.587500X-0.150000X0*%
%ADD47RoundRect,0.250000X-0.275000X-0.700000X0.275000X-0.700000X0.275000X0.700000X-0.275000X0.700000X0*%
%ADD48RoundRect,0.225000X0.225000X0.375000X-0.225000X0.375000X-0.225000X-0.375000X0.225000X-0.375000X0*%
%ADD49RoundRect,0.150000X0.150000X-0.825000X0.150000X0.825000X-0.150000X0.825000X-0.150000X-0.825000X0*%
%ADD50RoundRect,0.250000X0.176777X-0.707107X0.707107X-0.176777X-0.176777X0.707107X-0.707107X0.176777X0*%
%ADD51RoundRect,0.150000X0.150000X-0.512500X0.150000X0.512500X-0.150000X0.512500X-0.150000X-0.512500X0*%
%ADD52RoundRect,0.250000X-0.375000X-0.625000X0.375000X-0.625000X0.375000X0.625000X-0.375000X0.625000X0*%
%ADD53RoundRect,0.250000X0.625000X-0.375000X0.625000X0.375000X-0.625000X0.375000X-0.625000X-0.375000X0*%
%ADD54RoundRect,0.250000X-0.176777X0.707107X-0.707107X0.176777X0.176777X-0.707107X0.707107X-0.176777X0*%
G04 APERTURE END LIST*
D10*
%TO.C,D11*%
X152831800Y-92252800D03*
X154811698Y-94232698D03*
%TD*%
D11*
%TO.C,T1*%
X136992200Y-73213500D03*
X136992200Y-63013500D03*
D12*
X119212200Y-73713500D03*
X119212200Y-63013500D03*
D11*
X136992200Y-68213500D03*
%TD*%
D13*
%TO.C,D15*%
X169395600Y-42748200D03*
X166595600Y-42748200D03*
%TD*%
D14*
%TO.C,R13*%
X134960900Y-127203200D03*
X137885900Y-127203200D03*
%TD*%
%TO.C,R22*%
X160614900Y-89560400D03*
X163539900Y-89560400D03*
%TD*%
D15*
%TO.C,C28*%
X167081200Y-112572800D03*
X167081200Y-109622800D03*
%TD*%
D14*
%TO.C,R21*%
X133360700Y-99466400D03*
X136285700Y-99466400D03*
%TD*%
D13*
%TO.C,D21*%
X80698800Y-106045000D03*
X77898800Y-106045000D03*
%TD*%
D15*
%TO.C,C27*%
X164490400Y-112572800D03*
X164490400Y-109622800D03*
%TD*%
D16*
%TO.C,C12*%
X163068000Y-127736600D03*
X163068000Y-130686600D03*
%TD*%
D17*
%TO.C,R32*%
X59258200Y-104901000D03*
X65358200Y-104901000D03*
%TD*%
%TO.C,R31*%
X59258200Y-100011000D03*
X65358200Y-100011000D03*
%TD*%
D18*
%TO.C,C10*%
X170408600Y-127736600D03*
D19*
X170408600Y-130236600D03*
%TD*%
D20*
%TO.C,K2*%
X84328000Y-39420800D03*
D21*
X84328000Y-47040800D03*
X84328000Y-52120800D03*
X84328000Y-57200800D03*
X91948000Y-57200800D03*
X91948000Y-52120800D03*
X91948000Y-47040800D03*
X91948000Y-39420800D03*
%TD*%
D22*
%TO.C,*%
X188670600Y-33147000D03*
%TD*%
D23*
%TO.C,D8*%
X166142400Y-94713800D03*
X169442400Y-94713800D03*
%TD*%
D24*
%TO.C,C3*%
X154582600Y-67589400D03*
X157532600Y-67589400D03*
%TD*%
D25*
%TO.C,K8*%
X103428800Y-119303800D03*
X93268800Y-119303800D03*
X90728800Y-119303800D03*
X90728800Y-126923800D03*
X93268800Y-126923800D03*
X103428800Y-126923800D03*
%TD*%
D17*
%TO.C,R33*%
X59258200Y-109791000D03*
X65358200Y-109791000D03*
%TD*%
D20*
%TO.C,K4*%
X73355200Y-82473800D03*
D21*
X80975200Y-82473800D03*
X86055200Y-82473800D03*
X91135200Y-82473800D03*
X91135200Y-74853800D03*
X86055200Y-74853800D03*
X80975200Y-74853800D03*
X73355200Y-74853800D03*
%TD*%
D26*
%TO.C,U1*%
X131145600Y-124015800D03*
X131145600Y-122015800D03*
X131145600Y-120015800D03*
X131145600Y-118015800D03*
X131145600Y-116015800D03*
X131145600Y-114015800D03*
X131145600Y-112015800D03*
X131145600Y-110015800D03*
D27*
X128545600Y-108515800D03*
X126545600Y-108515800D03*
X124545600Y-108515800D03*
X122545600Y-108515800D03*
X120545600Y-108515800D03*
X118545600Y-108515800D03*
D26*
X115945600Y-110015800D03*
X115945600Y-112015800D03*
X115945600Y-114015800D03*
X115945600Y-116015800D03*
X115945600Y-118015800D03*
X115945600Y-120015800D03*
X115945600Y-122015800D03*
X115945600Y-124015800D03*
%TD*%
D15*
%TO.C,C22*%
X169824400Y-84025000D03*
X169824400Y-81075000D03*
%TD*%
D28*
%TO.C,U5*%
X187853200Y-108585000D03*
D29*
X187853200Y-111125000D03*
X187853200Y-113665000D03*
%TD*%
D13*
%TO.C,D16*%
X80673400Y-87299800D03*
X77873400Y-87299800D03*
%TD*%
D30*
%TO.C,U2*%
X115327200Y-89493000D03*
X115327200Y-88223000D03*
X115327200Y-86953000D03*
X115327200Y-85683000D03*
X115327200Y-84413000D03*
X115327200Y-83143000D03*
X115327200Y-81873000D03*
X115327200Y-80603000D03*
X110377200Y-80603000D03*
X110377200Y-81873000D03*
X110377200Y-83143000D03*
X110377200Y-84413000D03*
X110377200Y-85683000D03*
X110377200Y-86953000D03*
X110377200Y-88223000D03*
X110377200Y-89493000D03*
%TD*%
D31*
%TO.C,J7*%
X97791200Y-30403800D03*
D32*
X102791200Y-30403800D03*
X107791200Y-30403800D03*
X112791200Y-30403800D03*
X117791200Y-30403800D03*
X122791200Y-30403800D03*
X127791200Y-30403800D03*
X132791200Y-30403800D03*
X137791200Y-30403800D03*
X142791200Y-30403800D03*
X147791200Y-30403800D03*
X152791200Y-30403800D03*
%TD*%
D25*
%TO.C,K10*%
X85039200Y-122250200D03*
X74879200Y-122250200D03*
X72339200Y-122250200D03*
X72339200Y-129870200D03*
X74879200Y-129870200D03*
X85039200Y-129870200D03*
%TD*%
D33*
%TO.C,Q1*%
X148895000Y-66578400D03*
X148895000Y-68478400D03*
X150770000Y-67528400D03*
%TD*%
D15*
%TO.C,C29*%
X169722800Y-112572800D03*
X169722800Y-109622800D03*
%TD*%
D14*
%TO.C,R11*%
X141702600Y-116128800D03*
X144627600Y-116128800D03*
%TD*%
%TO.C,R36*%
X172070300Y-39547800D03*
X174995300Y-39547800D03*
%TD*%
D25*
%TO.C,K5*%
X103403400Y-86868000D03*
X93243400Y-86868000D03*
X90703400Y-86868000D03*
X90703400Y-94488000D03*
X93243400Y-94488000D03*
X103403400Y-94488000D03*
%TD*%
D33*
%TO.C,Q4*%
X148747200Y-48884800D03*
X148747200Y-50784800D03*
X150622200Y-49834800D03*
%TD*%
D34*
%TO.C,R9*%
X149580600Y-113345500D03*
X149580600Y-116270500D03*
%TD*%
D13*
%TO.C,D19*%
X80698800Y-98602800D03*
X77898800Y-98602800D03*
%TD*%
D35*
%TO.C,R26*%
X150139400Y-96168400D03*
X150139400Y-93243400D03*
%TD*%
D15*
%TO.C,C23*%
X167081200Y-84025000D03*
X167081200Y-81075000D03*
%TD*%
%TO.C,C9*%
X175183800Y-112572800D03*
X175183800Y-109622800D03*
%TD*%
D36*
%TO.C,J4*%
X187020200Y-93421200D03*
D32*
X187020200Y-98421200D03*
%TD*%
D37*
%TO.C,R39*%
X75782900Y-87299800D03*
X72857900Y-87299800D03*
%TD*%
D25*
%TO.C,K9*%
X85064600Y-111302800D03*
X74904600Y-111302800D03*
X72364600Y-111302800D03*
X72364600Y-118922800D03*
X74904600Y-118922800D03*
X85064600Y-118922800D03*
%TD*%
D38*
%TO.C,C19*%
X136298200Y-77952600D03*
X133348200Y-77952600D03*
%TD*%
D13*
%TO.C,D13*%
X146329400Y-89560400D03*
X143529400Y-89560400D03*
%TD*%
D38*
%TO.C,C18*%
X114098600Y-78333600D03*
X111148600Y-78333600D03*
%TD*%
D13*
%TO.C,D2*%
X171780200Y-121615200D03*
X168980200Y-121615200D03*
%TD*%
D20*
%TO.C,K3*%
X91160600Y-63398400D03*
D21*
X83540600Y-63398400D03*
X78460600Y-63398400D03*
X73380600Y-63398400D03*
X73380600Y-71018400D03*
X78460600Y-71018400D03*
X83540600Y-71018400D03*
X91160600Y-71018400D03*
%TD*%
D36*
%TO.C,J3*%
X57454800Y-48768000D03*
D32*
X57454800Y-53768000D03*
X57454800Y-58768000D03*
X57454800Y-63768000D03*
X57454800Y-68768000D03*
%TD*%
D11*
%TO.C,BN73-202*%
X96037400Y-63383800D03*
X96037400Y-73583800D03*
D12*
X113817400Y-62883800D03*
X113817400Y-73583800D03*
%TD*%
D37*
%TO.C,R18*%
X111139700Y-120523000D03*
X108214700Y-120523000D03*
%TD*%
D39*
%TO.C,J6*%
X189686800Y-53588600D03*
D40*
X189686800Y-56128600D03*
%TD*%
D41*
%TO.C,U4*%
X121615200Y-80467200D03*
X121615200Y-81737200D03*
X121615200Y-83007200D03*
X121615200Y-84277200D03*
X121615200Y-85547200D03*
X121615200Y-86817200D03*
X121615200Y-88087200D03*
X121615200Y-89357200D03*
X126565200Y-89357200D03*
X126565200Y-88087200D03*
X126565200Y-86817200D03*
X126565200Y-85547200D03*
X126565200Y-84277200D03*
X126565200Y-83007200D03*
X126565200Y-81737200D03*
X126565200Y-80467200D03*
%TD*%
D42*
%TO.C,J5*%
X144612000Y-126533800D03*
X149012000Y-126533800D03*
D43*
X145212000Y-123933800D03*
X146012000Y-123933800D03*
X146812000Y-123933800D03*
X147612000Y-123933800D03*
X148412000Y-123933800D03*
D44*
X142412000Y-123933800D03*
X142412000Y-129433800D03*
X151212000Y-123933800D03*
X151212000Y-129433800D03*
%TD*%
D37*
%TO.C,R42*%
X75833700Y-98577400D03*
X72908700Y-98577400D03*
%TD*%
D25*
%TO.C,K11*%
X122275600Y-56591200D03*
X132435600Y-56591200D03*
X134975600Y-56591200D03*
X134975600Y-48971200D03*
X132435600Y-48971200D03*
X122275600Y-48971200D03*
%TD*%
D41*
%TO.C,U3*%
X110416800Y-93649800D03*
X110416800Y-94919800D03*
X110416800Y-96189800D03*
X110416800Y-97459800D03*
X110416800Y-98729800D03*
X110416800Y-99999800D03*
X110416800Y-101269800D03*
X110416800Y-102539800D03*
X115366800Y-102539800D03*
X115366800Y-101269800D03*
X115366800Y-99999800D03*
X115366800Y-98729800D03*
X115366800Y-97459800D03*
X115366800Y-96189800D03*
X115366800Y-94919800D03*
X115366800Y-93649800D03*
%TD*%
D16*
%TO.C,C15*%
X138531600Y-106805200D03*
X138531600Y-109755200D03*
%TD*%
D25*
%TO.C,K6*%
X103378000Y-97612200D03*
X93218000Y-97612200D03*
X90678000Y-97612200D03*
X90678000Y-105232200D03*
X93218000Y-105232200D03*
X103378000Y-105232200D03*
%TD*%
D14*
%TO.C,R35*%
X146009900Y-42824400D03*
X148934900Y-42824400D03*
%TD*%
D37*
%TO.C,R5*%
X146024600Y-68478400D03*
X143099600Y-68478400D03*
%TD*%
%TO.C,R15*%
X111114300Y-123240800D03*
X108189300Y-123240800D03*
%TD*%
D38*
%TO.C,C16*%
X138127000Y-119430800D03*
X135177000Y-119430800D03*
%TD*%
D16*
%TO.C,C11*%
X165531800Y-127736600D03*
X165531800Y-130686600D03*
%TD*%
%TO.C,C6*%
X135839200Y-106778000D03*
X135839200Y-109728000D03*
%TD*%
D45*
%TO.C,D14*%
X147421600Y-86868000D03*
X145441702Y-84888102D03*
%TD*%
D14*
%TO.C,R19*%
X108240100Y-125958600D03*
X111165100Y-125958600D03*
%TD*%
D37*
%TO.C,R43*%
X75833700Y-102209600D03*
X72908700Y-102209600D03*
%TD*%
D28*
%TO.C,U6*%
X176448600Y-124561600D03*
D29*
X176448600Y-127101600D03*
X176448600Y-129641600D03*
%TD*%
D14*
%TO.C,R3*%
X144877800Y-54813200D03*
X147802800Y-54813200D03*
%TD*%
D34*
%TO.C,R8*%
X159740600Y-113497900D03*
X159740600Y-116422900D03*
%TD*%
D37*
%TO.C,R40*%
X75768200Y-91084400D03*
X72843200Y-91084400D03*
%TD*%
D41*
%TO.C,U7*%
X132399000Y-80670400D03*
X132399000Y-81940400D03*
X132399000Y-83210400D03*
X132399000Y-84480400D03*
X132399000Y-85750400D03*
X132399000Y-87020400D03*
X132399000Y-88290400D03*
X137349000Y-88290400D03*
X137349000Y-87020400D03*
X137349000Y-85750400D03*
X137349000Y-84480400D03*
X137349000Y-83210400D03*
X137349000Y-81940400D03*
X137349000Y-80670400D03*
%TD*%
D22*
%TO.C,*%
X188645200Y-124672400D03*
%TD*%
D25*
%TO.C,K12*%
X178282600Y-49098200D03*
X168122600Y-49098200D03*
X165582600Y-49098200D03*
X165582600Y-56718200D03*
X168122600Y-56718200D03*
X178282600Y-56718200D03*
%TD*%
D13*
%TO.C,D17*%
X80698800Y-91135200D03*
X77898800Y-91135200D03*
%TD*%
D46*
%TO.C,Q2*%
X137337800Y-124937600D03*
X137337800Y-123037600D03*
X135462800Y-123987600D03*
%TD*%
D18*
%TO.C,C4*%
X166101913Y-31369000D03*
D19*
X163601913Y-31369000D03*
%TD*%
D16*
%TO.C,C26*%
X155625800Y-127736600D03*
X155625800Y-130686600D03*
%TD*%
D35*
%TO.C,R38*%
X163271200Y-40019700D03*
X163271200Y-37094700D03*
%TD*%
D22*
%TO.C,REF\u002A\u002A*%
X56946800Y-33147000D03*
%TD*%
D14*
%TO.C,R37*%
X172044900Y-36830000D03*
X174969900Y-36830000D03*
%TD*%
D18*
%TO.C,C1*%
X177774600Y-83769200D03*
D19*
X177774600Y-81269200D03*
%TD*%
D47*
%TO.C,L1*%
X151129800Y-42849800D03*
X154279800Y-42849800D03*
%TD*%
D48*
%TO.C,D3*%
X158139400Y-121818400D03*
X154839400Y-121818400D03*
%TD*%
D14*
%TO.C,R17*%
X108443300Y-112496600D03*
X111368300Y-112496600D03*
%TD*%
D18*
%TO.C,C7*%
X180670200Y-112471200D03*
D19*
X180670200Y-109971200D03*
%TD*%
D13*
%TO.C,D20*%
X80724200Y-102260400D03*
X77924200Y-102260400D03*
%TD*%
D16*
%TO.C,C24*%
X160578800Y-127736600D03*
X160578800Y-130686600D03*
%TD*%
%TO.C,C13*%
X146532600Y-104341400D03*
X146532600Y-107291400D03*
%TD*%
D37*
%TO.C,R24*%
X136311100Y-94284800D03*
X133386100Y-94284800D03*
%TD*%
D17*
%TO.C,R2*%
X59258200Y-90231000D03*
X65358200Y-90231000D03*
%TD*%
D49*
%TO.C,U11*%
X149199600Y-108404200D03*
X150469600Y-108404200D03*
X151739600Y-108404200D03*
X153009600Y-108404200D03*
X154279600Y-108404200D03*
X155549600Y-108404200D03*
X156819600Y-108404200D03*
X158089600Y-108404200D03*
X158089600Y-103454200D03*
X156819600Y-103454200D03*
X155549600Y-103454200D03*
X154279600Y-103454200D03*
X153009600Y-103454200D03*
X151739600Y-103454200D03*
X150469600Y-103454200D03*
X149199600Y-103454200D03*
%TD*%
D22*
%TO.C,*%
X56870600Y-124672400D03*
%TD*%
D14*
%TO.C,R20*%
X135189500Y-114350800D03*
X138114500Y-114350800D03*
%TD*%
D50*
%TO.C,D9*%
X152857200Y-86893400D03*
X154837098Y-84913502D03*
%TD*%
D13*
%TO.C,D18*%
X80698800Y-94894400D03*
X77898800Y-94894400D03*
%TD*%
D38*
%TO.C,C21*%
X169470600Y-36982400D03*
X166520600Y-36982400D03*
%TD*%
D17*
%TO.C,R6*%
X59258200Y-95121000D03*
X65358200Y-95121000D03*
%TD*%
D16*
%TO.C,C14*%
X141249400Y-106805200D03*
X141249400Y-109755200D03*
%TD*%
%TO.C,C25*%
X158064200Y-127736600D03*
X158064200Y-130686600D03*
%TD*%
D14*
%TO.C,R16*%
X108428600Y-107137200D03*
X111353600Y-107137200D03*
%TD*%
%TO.C,R14*%
X135011700Y-129692400D03*
X137936700Y-129692400D03*
%TD*%
D38*
%TO.C,C20*%
X169521400Y-39827200D03*
X166571400Y-39827200D03*
%TD*%
D14*
%TO.C,R7*%
X108417900Y-109829600D03*
X111342900Y-109829600D03*
%TD*%
D17*
%TO.C,R34*%
X59258200Y-114681000D03*
X65358200Y-114681000D03*
%TD*%
D51*
%TO.C,U12*%
X152593000Y-116295600D03*
X153543000Y-116295600D03*
X154493000Y-116295600D03*
X154493000Y-114020600D03*
X153543000Y-114020600D03*
X152593000Y-114020600D03*
%TD*%
D37*
%TO.C,R44*%
X75808300Y-106019600D03*
X72883300Y-106019600D03*
%TD*%
D14*
%TO.C,R29*%
X146452400Y-62103000D03*
X149377400Y-62103000D03*
%TD*%
D52*
%TO.C,D4*%
X108251800Y-128625600D03*
X111051800Y-128625600D03*
%TD*%
D23*
%TO.C,D1*%
X183744600Y-85979000D03*
X187044600Y-85979000D03*
%TD*%
D20*
%TO.C,K1*%
X72491600Y-39344600D03*
D21*
X72491600Y-46964600D03*
X72491600Y-52044600D03*
X72491600Y-57124600D03*
X80111600Y-57124600D03*
X80111600Y-52044600D03*
X80111600Y-46964600D03*
X80111600Y-39344600D03*
%TD*%
D33*
%TO.C,Q3*%
X108813600Y-115092400D03*
X108813600Y-116992400D03*
X110688600Y-116042400D03*
%TD*%
D37*
%TO.C,R1*%
X166801800Y-121589800D03*
X163876800Y-121589800D03*
%TD*%
D11*
%TO.C,T2*%
X162067400Y-63362300D03*
X162067400Y-73562300D03*
D12*
X179847400Y-62862300D03*
X179847400Y-73562300D03*
D11*
X162067400Y-68362300D03*
%TD*%
D15*
%TO.C,C2*%
X172491400Y-84023200D03*
X172491400Y-81073200D03*
%TD*%
D24*
%TO.C,C17*%
X111428000Y-91541600D03*
X114378000Y-91541600D03*
%TD*%
D52*
%TO.C,D10*%
X153943400Y-89585800D03*
X156743400Y-89585800D03*
%TD*%
D14*
%TO.C,R30*%
X151557800Y-62103000D03*
X154482800Y-62103000D03*
%TD*%
D37*
%TO.C,R28*%
X163565300Y-92075000D03*
X160640300Y-92075000D03*
%TD*%
D15*
%TO.C,C8*%
X172288200Y-112572800D03*
X172288200Y-109622800D03*
%TD*%
D23*
%TO.C,D6*%
X166142400Y-88013800D03*
X169442400Y-88013800D03*
%TD*%
D37*
%TO.C,R23*%
X136361900Y-96875600D03*
X133436900Y-96875600D03*
%TD*%
D14*
%TO.C,R4*%
X150063200Y-54813200D03*
X152988200Y-54813200D03*
%TD*%
D41*
%TO.C,U8*%
X121694400Y-93751400D03*
X121694400Y-95021400D03*
X121694400Y-96291400D03*
X121694400Y-97561400D03*
X121694400Y-98831400D03*
X121694400Y-100101400D03*
X121694400Y-101371400D03*
X121694400Y-102641400D03*
X126644400Y-102641400D03*
X126644400Y-101371400D03*
X126644400Y-100101400D03*
X126644400Y-98831400D03*
X126644400Y-97561400D03*
X126644400Y-96291400D03*
X126644400Y-95021400D03*
X126644400Y-93751400D03*
%TD*%
D14*
%TO.C,R25*%
X160614900Y-94640400D03*
X163539900Y-94640400D03*
%TD*%
D24*
%TO.C,C5*%
X154582600Y-49860200D03*
X157532600Y-49860200D03*
%TD*%
D53*
%TO.C,D5*%
X150139400Y-85775800D03*
X150139400Y-82975800D03*
%TD*%
D25*
%TO.C,K7*%
X103428800Y-108381800D03*
X93268800Y-108381800D03*
X90728800Y-108381800D03*
X90728800Y-116001800D03*
X93268800Y-116001800D03*
X103428800Y-116001800D03*
%TD*%
D46*
%TO.C,Q5*%
X174444900Y-34339700D03*
X174444900Y-32439700D03*
X172569900Y-33389700D03*
%TD*%
D14*
%TO.C,R10*%
X141702600Y-113538000D03*
X144627600Y-113538000D03*
%TD*%
D37*
%TO.C,R27*%
X136300400Y-91668600D03*
X133375400Y-91668600D03*
%TD*%
D54*
%TO.C,D12*%
X147396200Y-92252800D03*
X145416302Y-94232698D03*
%TD*%
D14*
%TO.C,R12*%
X135164100Y-116763800D03*
X138089100Y-116763800D03*
%TD*%
D23*
%TO.C,D7*%
X166142400Y-91363800D03*
X169442400Y-91363800D03*
%TD*%
D37*
%TO.C,R41*%
X75859100Y-94869000D03*
X72934100Y-94869000D03*
%TD*%
M02*
